<?xml version="1.0" encoding="UTF-8" standalone="no"?>
<svg
   width="423.09476"
   height="303.32812"
   viewBox="0 0 250 179.23179"
   class="looka-1j8o68f"
   version="1.1"
   id="svg77"
   xmlns="http://www.w3.org/2000/svg"
   xmlns:svg="http://www.w3.org/2000/svg">
  <defs
     id="SvgjsDefs3331" />
  <g
     id="SvgjsG3332"
     featurekey="ECw45b-0"
     transform="matrix(35.010715,0,0,35.010715,37.477995,-38.896089)"
     fill="#111111">
    <title
       id="title3">Untitled-2</title>
    <path
       d="M 3.92355,3.16909 A 0.15608,0.15608 0 0 1 3.91655,3.11633 0.10479,0.10479 0 0 1 3.91972,3.07525 L 3.91878,3.0674 C 3.91752,3.05216 3.91518,3.03689 3.91546,3.02167 A 0.02758,0.02758 0 0 0 3.90158,2.99257 L 3.895,2.93378 A 0.06138,0.06138 0 0 1 3.8923,2.91621 c 0.00342,-0.01669 -0.00256,-0.03314 0,-0.04969 L 3.891,2.85668 A 0.07174,0.07174 0 0 1 3.888,2.82716 0.17048,0.17048 0 0 0 3.88539,2.80349 0.05165,0.05165 0 0 1 3.88316,2.78977 0.02566,0.02566 0 0 0 3.86823,2.76208 L 3.8667,2.75808 3.8687,2.75297 A 0.02247,0.02247 0 0 0 3.87525,2.72946 0.09154,0.09154 0 0 1 3.875,2.70156 0.33966,0.33966 0 0 0 3.87474,2.61625 0.06954,0.06954 0 0 0 3.86829,2.58789 C 3.87114,2.56989 3.86161,2.55272 3.86512,2.53472 a 0.07134,0.07134 0 0 1 0,-0.04483 A 0.258,0.258 0 0 0 3.86925,2.41442 0.0835,0.0835 0 0 1 3.87012,2.39052 0.18465,0.18465 0 0 0 3.86491,2.32537 0.054,0.054 0 0 0 3.85772,2.30511 C 3.85224,2.29722 3.84305,2.30161 3.83529,2.3016 A 0.01048,0.01048 0 0 1 3.82314,2.29117 L 3.81795,2.24959 A 0.112,0.112 0 0 0 3.80225,2.19083 L 3.79766,2.17983 A 0.44984,0.44984 0 0 0 3.76659,2.10212 C 3.76231,2.09084 3.75385,2.07932 3.73719,2.08712 3.73325,2.08897 3.72777,2.08306 3.72874,2.07849 L 3.7333,2.06766 A 0.02832,0.02832 0 0 0 3.73469,2.03726 C 3.73243,2.03226 3.72655,2.02902 3.7224,2.02489 3.71634,2.01889 3.71719,2.01366 3.72481,2.00949 3.73488,2.00398 3.73696,2.00054 3.73422,1.99103 L 3.72117,1.94934 A 0.07878,0.07878 0 0 1 3.66351,1.888 0.0349,0.0349 0 0 0 3.65132,1.87021 C 3.64574,1.86551 3.63878,1.86233 3.63362,1.85726 A 0.05754,0.05754 0 0 0 3.59027,1.838 L 3.56485,1.81819 3.55832,1.81359 A 0.0085,0.0085 0 0 1 3.55949,1.79876 L 3.56665,1.79534 A 0.02154,0.02154 0 0 0 3.58105,1.7826 0.08212,0.08212 0 0 0 3.59324,1.72968 L 3.5883,1.71985 3.57556,1.72255 3.5698,1.728 3.54212,1.75622 C 3.53322,1.75079 3.53068,1.74659 3.53467,1.7377 A 0.12579,0.12579 0 0 1 3.551,1.71057 0.20844,0.20844 0 0 1 3.574,1.68834 C 3.59615,1.66814 3.61883,1.64851 3.64051,1.62783 a 0.29635,0.29635 0 0 0 0.05668,-0.0719 l 0.00355,-0.013 A 0.033,0.033 0 0 0 3.67144,1.56001 0.07111,0.07111 0 0 1 3.63563,1.58762 C 3.62645,1.59236 3.61808,1.58398 3.60912,1.58262 L 3.60689,1.58054 A 0.02149,0.02149 0 0 1 3.61146,1.56082 L 3.6281,1.541 C 3.63523,1.53309 3.64324,1.52591 3.64983,1.51759 A 0.25524,0.25524 0 0 1 3.69355,1.47385 L 3.71015,1.45799 C 3.69946,1.43799 3.68842,1.43537 3.67372,1.44834 l -0.03071,0.028 A 0.04245,0.04245 0 0 1 3.60721,1.48956 0.01651,0.01651 0 0 0 3.59483,1.4938 C 3.58388,1.50552 3.57293,1.51764 3.57776,1.53601 L 3.57733,1.54384 3.57161,1.54826 3.56926,1.53566 A 0.02159,0.02159 0 0 0 3.55016,1.54882 0.3397,0.3397 0 0 1 3.52662,1.58261 L 3.51952,1.57132 A 0.06351,0.06351 0 0 1 3.52359,1.53216 0.02,0.02 0 0 0 3.522,1.508 0.07279,0.07279 0 0 1 3.50795,1.471 L 3.50195,1.41741 A 0.04062,0.04062 0 0 0 3.4937,1.39327 0.00936,0.00936 0 0 0 3.4797,1.39193 0.02648,0.02648 0 0 0 3.47038,1.41712 0.24374,0.24374 0 0 0 3.47699,1.46248 0.31626,0.31626 0 0 1 3.48405,1.50981 0.03217,0.03217 0 0 1 3.46834,1.54381 C 3.4561,1.55145 3.45628,1.55375 3.46139,1.56672 L 3.46446,1.57406 A 0.01278,0.01278 0 0 1 3.45056,1.59078 L 3.43283,1.58791 A 0.03026,0.03026 0 0 1 3.4103,1.57002 L 3.40367,1.55331 3.38848,1.49331 3.3763,1.439 3.371,1.42185 A 0.008,0.008 0 0 0 3.3557,1.421 0.06164,0.06164 0 0 0 3.34927,1.47628 c 0.00411,0.00962 0.01151,0.01777 0.0166,0.027 0.00833,0.01517 0.01514,0.03122 0.02414,0.046 a 0.23928,0.23928 0 0 1 0.02847,0.0785 0.03415,0.03415 0 0 1 -1.9e-4,0.02621 L 3.38062,1.66014 3.38332,1.67195 A 0.15522,0.15522 0 0 1 3.39053,1.69459 0.046,0.046 0 0 1 3.38553,1.72716 0.08645,0.08645 0 0 0 3.37372,1.7521 0.02338,0.02338 0 0 1 3.34989,1.7721 0.09144,0.09144 0 0 0 3.32859,1.77697 L 3.31316,1.7809 A 0.1175,0.1175 0 0 0 3.26352,1.79897 C 3.24218,1.80974 3.22067,1.82024 3.19869,1.82958 A 0.03737,0.03737 0 0 0 3.18269,1.8404 L 3.15088,1.87864 3.14464,1.87689 3.13814,1.87266 3.13034,1.87603 c -0.01,0.00363 -0.01688,-0.001 -0.014,-0.01054 A 0.07538,0.07538 0 0 1 3.13017,1.83724 0.16427,0.16427 0 0 0 3.14845,1.81386 L 3.17005,1.7806 3.17188,1.76929 C 3.17145,1.74651 3.15453,1.73681 3.13847,1.72592 L 3.122,1.739 3.1164,1.73213 C 3.11251,1.71803 3.1087,1.70388 3.10555,1.6896 A 0.06205,0.06205 0 0 1 3.10675,1.662 0.09736,0.09736 0 0 0 3.10891,1.62644 0.16671,0.16671 0 0 1 3.11191,1.56292 0.09711,0.09711 0 0 0 3.11311,1.52728 L 3.10741,1.48978 3.105,1.48017 A 0.3033,0.3033 0 0 0 3.08628,1.44073 0.09676,0.09676 0 0 1 3.06963,1.36687 0.02009,0.02009 0 0 0 3.06682,1.35181 0.157,0.157 0 0 1 3.04482,1.30503 0.0876,0.0876 0 0 0 3.0124,1.26562 0.19312,0.19312 0 0 1 2.983,1.23885 0.10765,0.10765 0 0 1 2.9694,1.21469 C 2.96215,1.20169 2.95299,1.20087 2.94054,1.21201 l 0.01,0.0191 A 0.01146,0.01146 0 0 1 2.94747,1.24592 L 2.92578,1.22157 A 0.13481,0.13481 0 0 0 2.92548,1.20008 0.02163,0.02163 0 0 0 2.91857,1.18655 0.12577,0.12577 0 0 1 2.89324,1.16128 0.02164,0.02164 0 0 0 2.86874,1.15199 0.034,0.034 0 0 1 2.84756,1.14974 0.0802,0.0802 0 0 1 2.808,1.12548 0.02233,0.02233 0 0 1 2.77858,1.12271 L 2.77167,1.11871 A 0.03718,0.03718 0 0 0 2.73955,1.11219 L 2.70978,1.1155 A 0.17611,0.17611 0 0 0 2.65728,1.12685 0.05434,0.05434 0 0 1 2.6378,1.12939 0.03954,0.03954 0 0 0 2.60793,1.13956 0.0412,0.0412 0 0 0 2.56437,1.13456 c -0.01547,0.006 -0.03052,0.01317 -0.04566,0.02 A 0.07,0.07 0 0 0 2.487,1.178 0.20016,0.20016 0 0 1 2.46651,1.20222 L 2.4359,1.23355 A 0.06235,0.06235 0 0 1 2.41083,1.25269 0.04166,0.04166 0 0 0 2.3956,1.26205 0.14963,0.14963 0 0 0 2.37641,1.28471 0.03661,0.03661 0 0 0 2.37456,1.31009 c 0.001,0.01024 0.01029,0.01351 0.01637,0.01918 0.00828,0.00773 0.01651,0.006 0.02036,-0.0044 a 0.07636,0.07636 0 0 0 0.00518,-0.02528 0.06686,0.06686 0 0 1 0.01334,-0.035 c 0.00488,-0.00787 0.012,-0.00735 0.01748,5.2e-4 L 2.4525,1.27365 A 0.012,0.012 0 0 1 2.45164,1.28848 L 2.44672,1.29479 c -0.01,0.01645 -0.00715,0.02686 0.01082,0.038 0.02431,-0.01438 0.02074,-0.03836 0.019,-0.06256 l 0.00673,0.0034 a 0.01136,0.01136 0 0 0 0.01878,0.00165 l 0.00521,-0.0024 0.0072,0.00409 A 0.08324,0.08324 0 0 0 2.49269,1.32205 0.064,0.064 0 0 0 2.53117,1.29544 L 2.52586,1.276 l 0.012,0.00587 0.00487,0.013 a 0.00874,0.00874 0 0 0 0.0134,0.00359 L 2.56396,1.28976 A 0.07962,0.07962 0 0 1 2.5763,1.26944 0.04032,0.04032 0 0 0 2.58157,1.25462 L 2.584,1.23886 2.58979,1.23142 c 0.00865,0.01 0.007,0.02167 0.01062,0.0295 l 0.02116,0.01824 a 0.12319,0.12319 0 0 1 0.013,8e-5 0.01268,0.01268 0 0 1 0.012,0.01677 L 2.64114,1.30886 A 0.01724,0.01724 0 0 0 2.64426,1.32839 L 2.65789,1.3165 2.67402,1.32731 A 0.1893,0.1893 0 0 0 2.68967,1.30875 0.02154,0.02154 0 0 1 2.71,1.29849 L 2.71988,1.2994 A 0.016,0.016 0 0 0 2.73647,1.29565 L 2.74421,1.29118 c 0.01843,0.0083 0.01783,0.00844 0.02179,0.0255 a 0.05576,0.05576 0 0 0 0.01844,0.0385 l 0.00125,0.0098 C 2.76943,1.3686 2.76429,1.34712 2.74877,1.35152 c -8.3e-4,0.00954 0.005,0.01319 0.01207,0.01632 0.00732,0.00323 0.01264,0.00875 0.01,0.01725 a 0.02638,0.02638 0 0 0 0.00635,0.02759 0.01063,0.01063 0 0 1 5.4e-4,0.01312 0.009,0.009 0 0 1 -0.0122,0.00366 0.0192,0.0192 0 0 0 -0.0232,0.00611 c -0.00519,0.00508 -0.012,0.0085 -0.017,0.01372 A 0.02346,0.02346 0 0 1 2.70318,1.45503 0.00891,0.00891 0 0 1 2.695,1.4453 C 2.69494,1.44041 2.69555,1.43551 2.696,1.42889 A 0.02509,0.02509 0 0 0 2.67761,1.44281 0.038,0.038 0 0 1 2.64682,1.46718 0.0971,0.0971 0 0 0 2.62304,1.47689 C 2.61192,1.48266 2.61213,1.48299 2.60098,1.47365 L 2.59731,1.47239 C 2.59171,1.4731 2.5865,1.47879 2.5805,1.4738 L 2.5662,1.43344 C 2.52955,1.42382 2.52955,1.42382 2.52834,1.38665 2.51787,1.37799 2.50826,1.38695 2.49809,1.38876 L 2.4795,1.37608 C 2.4721,1.37968 2.47041,1.38392 2.47386,1.38976 L 2.48179,1.40345 2.47939,1.41017 H 2.4722 A 0.12028,0.12028 0 0 1 2.45365,1.38941 0.11491,0.11491 0 0 0 2.429,1.3657 0.02173,0.02173 0 0 0 2.4305,1.386 L 2.43838,1.40428 A 0.02168,0.02168 0 0 1 2.43385,1.4269 L 2.4218,1.425 A 0.02335,0.02335 0 0 1 2.3981,1.40711 0.08826,0.08826 0 0 1 2.39446,1.3838 0.0744,0.0744 0 0 1 2.39656,1.37 0.01618,0.01618 0 0 0 2.38872,1.35292 L 2.3785,1.34663 C 2.36525,1.33963 2.35441,1.34463 2.3525,1.3597 a 0.05888,0.05888 0 0 1 -0.01688,0.03424 0.14429,0.14429 0 0 0 -0.037,0.09465 0.31149,0.31149 0 0 0 9e-4,0.046 A 0.395,0.395 0 0 1 2.28969,1.64348 0.09747,0.09747 0 0 0 2.28854,1.68872 0.00956,0.00956 0 0 1 2.28443,1.7012 H 2.279 A 0.04533,0.04533 0 0 0 2.22864,1.75469 0.2147,0.2147 0 0 0 2.23641,1.78975 0.28278,0.28278 0 0 1 2.24925,1.84411 0.077,0.077 0 0 0 2.25877,1.8702 l 0.02344,0.04409 a 0.225,0.225 0 0 0 0.05318,0.07612 0.06077,0.06077 0 0 0 0.03653,0.01778 0.02943,0.02943 0 0 1 0.02969,0.02908 c 0.0036,0.0236 0.02107,0.041 0.02685,0.06354 L 2.4322,2.10543 a 0.02742,0.02742 0 0 1 0.00812,0.02908 l -0.0028,0.0031 -0.01271,-0.0023 c -0.0046,0.01385 0.01078,0.00925 0.01382,0.01716 a 0.01888,0.01888 0 0 0 -0.00487,0.01936 0.09518,0.09518 0 0 1 8.3e-4,0.04354 l -0.00429,0.013 a 0.17255,0.17255 0 0 1 -0.05028,0.053 0.29576,0.29576 0 0 1 -0.03883,0.02425 c -0.00889,0.005 -0.01883,0.011 -0.021,0.02044 A 0.02228,0.02228 0 0 1 2.30112,2.34374 0.037,0.037 0 0 0 2.27555,2.36024 0.00924,0.00924 0 0 1 2.26268,2.36373 L 2.25661,2.34222 2.24251,2.305 C 2.23832,2.29379 2.23509,2.28215 2.23,2.27137 A 0.39833,0.39833 0 0 0 2.21043,2.23663 C 2.20186,2.22239 2.19211,2.2088 2.18443,2.19412 A 0.07425,0.07425 0 0 0 2.16932,2.17112 0.0621,0.0621 0 0 1 2.148,2.138 L 2.14315,2.12713 A 0.51336,0.51336 0 0 1 2.10938,2.07538 C 2.10443,2.06838 2.09825,2.06238 2.09261,2.05589 L 2.08215,2.04396 A 0.04717,0.04717 0 0 0 2.046,2.02131 0.03673,0.03673 0 0 0 2.026,1.99048 L 2.02316,1.98774 A 0.09079,0.09079 0 0 0 1.98888,1.95263 L 1.98066,1.944 1.94848,1.91131 A 0.10359,0.10359 0 0 1 1.9266,1.8884 0.18794,0.18794 0 0 0 1.896,1.8495 0.06262,0.06262 0 0 1 1.88218,1.82809 0.06624,0.06624 0 0 0 1.85949,1.79588 0.11986,0.11986 0 0 1 1.83228,1.76981 0.03669,0.03669 0 0 0 1.81617,1.75839 c -0.01478,-0.006 -0.03,-0.011 -0.04512,-0.01615 L 1.7612,1.74124 1.7602,1.7479 1.7583,1.75524 A 0.12286,0.12286 0 0 1 1.72443,1.72018 L 1.71279,1.7244 C 1.70718,1.71924 1.70246,1.71118 1.69663,1.71027 A 0.0713,0.0713 0 0 0 1.6553,1.71012 0.071,0.071 0 0 1 1.61304,1.7183 0.02243,0.02243 0 0 0 1.59066,1.72889 0.01121,0.01121 0 0 0 1.59348,1.74624 l 0.01443,0.00665 c 0.01616,0.00612 0.03266,0.01142 0.0485,0.01825 A 0.10792,0.10792 0 0 0 1.68462,1.78055 0.09008,0.09008 0 0 1 1.72708,1.79701 0.10484,0.10484 0 0 0 1.74479,1.80595 L 1.7717,1.81863 c 0.01256,0.00581 0.025,0.01193 0.0378,0.01712 A 0.01817,0.01817 0 0 1 1.82321,1.85103 0.0163,0.0163 0 0 0 1.83633,1.86495 L 1.85383,1.85527 1.8662,1.866 1.87573,1.87286 a 0.04009,0.04009 0 0 1 0.02256,0.02333 0.151,0.151 0 0 0 0.0308,0.04376 0.55718,0.55718 0 0 0 0.06486,0.05921 C 2.01204,2.01306 2.0248,2.03225 2.04374,2.04485 A 0.42711,0.42711 0 0 0 2.07655,2.0875 0.50361,0.50361 0 0 1 2.10373,2.13139 0.08292,0.08292 0 0 0 2.12434,2.1576 0.06906,0.06906 0 0 1 2.14513,2.18345 L 2.16461,2.21571 2.14788,2.23224 A 0.042,0.042 0 0 0 2.10525,2.22976 0.09533,0.09533 0 0 0 2.05899,2.25576 L 2.04963,2.262 A 0.01817,0.01817 0 0 1 2.04679,2.23594 L 2.05534,2.2225 C 2.0608,2.21273 2.05698,2.20569 2.04551,2.20457 L 2.0359,2.20581 C 2.02239,2.2151 2.00529,2.21958 1.99627,2.23496 A 0.01172,0.01172 0 0 1 1.98055,2.24079 L 1.96184,2.25716 C 1.95467,2.26316 1.94672,2.26825 1.94015,2.27479 1.93393,2.28098 1.92909,2.2881 1.93629,2.29761 A 0.01975,0.01975 0 0 1 1.939,2.311 0.0216,0.0216 0 0 0 1.94791,2.33355 c 0.00407,0.003 0.00595,0.00884 0.00958,0.01268 L 1.96984,2.35585 1.97863,2.35417 1.97921,2.34696 1.969,2.33222 A 0.02432,0.02432 0 0 1 1.97673,2.29369 0.07286,0.07286 0 0 1 2.01235,2.28332 0.02591,0.02591 0 0 1 2.03811,2.29825 C 2.04128,2.3048 2.04411,2.31299 2.05326,2.31142 2.06241,2.30985 2.06153,2.30062 2.06348,2.29377 A 0.04645,0.04645 0 0 1 2.081,2.26386 C 2.08661,2.26023 2.09075,2.2551 2.09863,2.25686 L 2.10787,2.25432 A 0.03889,0.03889 0 0 1 2.14411,2.25205 c 0.01038,0.00472 0.01676,0.0017 0.02383,-0.008 L 2.17243,2.23628 c 0.0101,0.00256 0.01106,0.01094 0.01435,0.017 0.00537,0.00987 0.00972,0.02031 0.0144,0.03056 a 0.12555,0.12555 0 0 1 0.011,0.02536 0.2102,0.2102 0 0 0 0.03091,0.06886 0.02206,0.02206 0 0 1 0.00443,0.01664 0.04169,0.04169 0 0 0 0.00309,0.02712 0.28911,0.28911 0 0 1 0.01092,0.032 0.33863,0.33863 0 0 1 0.01331,0.03945 0.07885,0.07885 0 0 0 0.01847,0.03876 0.02458,0.02458 0 0 1 0.002,0.03445 L 2.293,2.57532 C 2.29457,2.58899 2.29422,2.58903 2.281,2.59559 A 0.0711,0.0711 0 0 0 2.28032,2.64784 C 2.26824,2.64725 2.26777,2.64739 2.26557,2.64018 A 0.185,0.185 0 0 1 2.25857,2.58294 C 2.25874,2.57047 2.25977,2.55922 2.27502,2.55306 2.2668,2.54323 2.26521,2.53053 2.25502,2.52496 A 0.02382,0.02382 0 0 1 2.24302,2.50585 0.36339,0.36339 0 0 0 2.23349,2.4693 C 2.23221,2.4653 2.22849,2.45994 2.22501,2.45919 A 0.02426,0.02426 0 0 1 2.20378,2.43072 L 2.201,2.42331 2.197,2.40377 A 0.22862,0.22862 0 0 0 2.18731,2.34919 L 2.18,2.32947 C 2.19336,2.31703 2.19336,2.31703 2.1824,2.30855 L 2.17289,2.31931 2.14714,2.32131 2.13759,2.3028 a 0.00771,0.00771 0 0 0 -0.01,-0.00415 c -0.00455,0.002 -0.00468,0.00639 -0.00364,0.0103 l 0.00483,0.01088 a 0.05266,0.05266 0 0 1 0.00763,0.03966 c -0.00162,0.00552 0.002,0.0127 0.00367,0.019 L 2.14442,2.38903 2.13514,2.40295 a 0.02358,0.02358 0 0 0 7.8e-4,0.02291 0.01358,0.01358 0 0 0 0.01758,0.00533 c 0.00972,-0.00352 0.01432,0.00337 0.01941,0.00817 -0.00449,0.01 -0.008,0.01925 -0.0127,0.02777 L 2.15,2.47579 A 0.071,0.071 0 0 0 2.11588,2.5109 0.05382,0.05382 0 0 0 2.11247,2.5281 c -5.5e-4,0.00577 -1.2e-4,0.01163 -1.2e-4,0.01853 l 0.0134,0.00779 A 0.01121,0.01121 0 0 0 2.14129,2.54218 L 2.14042,2.53626 C 2.13409,2.51826 2.1452,2.50715 2.15671,2.49678 a 0.02527,0.02527 0 0 1 0.0143,-0.00564 0.0176,0.0176 0 0 1 0.0183,0.00623 L 2.18773,2.50254 C 2.17988,2.51105 2.18403,2.51886 2.18958,2.52579 2.19742,2.53558 2.20612,2.54468 2.21439,2.55401 v 0.0103 c 2.2e-4,0.01115 0.00162,0.02124 0.01516,0.02466 a 0.00884,0.00884 0 0 1 0.00587,0.0113 C 2.23419,2.60542 2.22989,2.60485 2.22586,2.60533 L 2.22,2.609 l 0.00471,0.00548 0.00191,5e-4 c 0.01287,0.00111 0.01654,0.01 0.01679,0.02089 A 0.045,0.045 0 0 1 2.24168,2.65772 L 2.21822,2.65548 A 0.01409,0.01409 0 0 0 2.2116,2.637 0.1225,0.1225 0 0 1 2.18107,2.61158 0.0177,0.0177 0 0 0 2.163,2.60573 0.11339,0.11339 0 0 0 2.1424,2.6125 C 2.12575,2.62059 2.10946,2.62941 2.09229,2.63831 L 2.07918,2.62564 a 0.01373,0.01373 0 0 0 -0.01977,10e-5 L 2.04291,2.6402 1.98722,2.68168 A 0.03421,0.03421 0 0 1 1.95751,2.69016 0.02155,0.02155 0 0 0 1.93502,2.69442 0.27142,0.27142 0 0 0 1.9123,2.72663 L 1.91348,2.73431 A 0.01372,0.01372 0 0 1 1.90854,2.74872 C 1.89675,2.75733 1.89509,2.77141 1.88922,2.7831 a 0.02361,0.02361 0 0 0 0.00994,0.02767 0.06133,0.06133 0 0 1 0.02865,0.0309 L 1.93537,2.85333 1.9561,2.88192 1.94531,2.89692 1.93493,2.89982 C 1.92593,2.89152 1.91667,2.89541 1.90618,2.89951 L 1.89064,2.8736 C 1.87724,2.87639 1.87764,2.87612 1.86993,2.86438 A 0.04922,0.04922 0 0 0 1.84172,2.844 0.01412,0.01412 0 0 0 1.82386,2.85963 L 1.82534,2.86542 A 0.04213,0.04213 0 0 1 1.81967,2.89778 0.09581,0.09581 0 0 0 1.80809,2.92713 0.14746,0.14746 0 0 0 1.80568,2.96274 0.71106,0.71106 0 0 1 1.79405,3.06343 0.02694,0.02694 0 0 1 1.78638,3.07928 0.02517,0.02517 0 0 0 1.77897,3.10089 L 1.77447,3.1104 A 0.02935,0.02935 0 0 1 1.75921,3.0774 l 8.5e-4,-0.01 A 0.51637,0.51637 0 0 0 1.76237,2.992 0.11266,0.11266 0 0 1 1.76637,2.95248 l 4.2e-4,-0.0078 A 0.21417,0.21417 0 0 1 1.76617,2.921 0.03976,0.03976 0 0 0 1.76094,2.89614 L 1.7545,2.87957 1.74519,2.85124 1.742,2.83581 A 0.01138,0.01138 0 0 1 1.75227,2.82316 L 1.76574,2.8208 C 1.77955,2.81186 1.79297,2.80227 1.806,2.79223 L 1.80882,2.78174 1.80158,2.77644 A 0.03675,0.03675 0 0 0 1.77,2.78544 L 1.75161,2.80373 a 0.02209,0.02209 0 0 1 -0.024,0.00583 C 1.71909,2.80642 1.70743,2.80484 1.70394,2.79366 A 0.13224,0.13224 0 0 0 1.66523,2.73443 0.3727,0.3727 0 0 0 1.62857,2.70382 0.0363,0.0363 0 0 1 1.61083,2.68159 L 1.60044,2.67885 A 0.02386,0.02386 0 0 0 1.57416,2.67738 0.03234,0.03234 0 0 1 1.55852,2.67955 0.11252,0.11252 0 0 0 1.51552,2.68677 L 1.47484,2.699 1.47541,2.69057 a 0.05787,0.05787 0 0 1 0.06408,-0.02825 0.03346,0.03346 0 0 0 0.027,0.00294 C 1.56934,2.65834 1.56717,2.64989 1.57436,2.64517 1.58464,2.63842 1.58656,2.62641 1.5916,2.61646 1.59442,2.61089 1.59105,2.60646 1.58418,2.60566 1.57842,2.60497 1.57205,2.60681 1.56727,2.60087 A 0.0253,0.0253 0 0 1 1.57887,2.57929 0.052,0.052 0 0 0 1.59392,2.56376 0.01883,0.01883 0 0 1 1.61674,2.5524 0.062,0.062 0 0 1 1.63677,2.56 c 0.008,0.0046 0.01513,0.01085 0.023,0.01583 A 0.00856,0.00856 0 0 0 1.673,2.57175 0.01823,0.01823 0 0 0 1.67148,2.551 L 1.65819,2.5391 1.63848,2.52568 A 0.02912,0.02912 0 0 0 1.60548,2.5186 l -0.00587,9e-4 A 0.009,0.009 0 0 1 1.58955,2.50974 l 0.00288,-0.0112 0.00665,-6.3e-4 c 0.01439,2.8e-4 0.015,-9.4e-4 0.02045,-0.01337 0.00411,-0.00932 0,-0.01816 1.7e-4,-0.02778 L 1.64956,2.44458 A 0.0847,0.0847 0 0 0 1.68756,2.41986 0.045,0.045 0 0 1 1.70664,2.40471 L 1.7229,2.41109 C 1.73531,2.41672 1.74653,2.42284 1.7474,2.43936 1.74783,2.4475 1.7542,2.45054 1.76201,2.44849 L 1.77681,2.44256 C 1.78588,2.43756 1.78698,2.42935 1.77874,2.42356 1.76798,2.41596 1.75632,2.40966 1.74517,2.40256 1.737,2.39746 1.72656,2.3948 1.723,2.383 L 1.72944,2.3757 1.73253,2.36724 1.72378,2.36074 A 0.02648,0.02648 0 0 0 1.70302,2.36564 0.04827,0.04827 0 0 1 1.67558,2.37624 L 1.66475,2.38074 1.63153,2.40288 a 0.05894,0.05894 0 0 0 -0.025,0.02764 L 1.59787,2.44381 a 0.03378,0.03378 0 0 0 -0.01279,0.0369 l -2.6e-4,0.002 A 0.00731,0.00731 0 0 1 1.57454,2.48881 L 1.56631,2.48349 C 1.56231,2.47657 1.55531,2.47439 1.54916,2.47062 L 1.53881,2.4617 A 0.034,0.034 0 0 0 1.51828,2.44692 L 1.5078,2.44134 A 0.0255,0.0255 0 0 0 1.48325,2.43671 0.06924,0.06924 0 0 0 1.43894,2.45671 L 1.43745,2.45797 1.42632,2.45626 A 0.03583,0.03583 0 0 1 1.45516,2.42973 L 1.47055,2.42544 1.48273,2.41875 A 0.01119,0.01119 0 0 0 1.48073,2.39915 0.05488,0.05488 0 0 0 1.454,2.39185 0.12983,0.12983 0 0 0 1.37635,2.42422 0.01652,0.01652 0 0 0 1.37159,2.44239 0.0201,0.0201 0 0 0 1.39396,2.45076 l 0.00973,-0.005 A 0.0339,0.0339 0 0 1 1.40193,2.47929 L 1.39931,2.49195 1.41393,2.4922 A 0.11688,0.11688 0 0 0 1.458,2.46968 0.03215,0.03215 0 0 1 1.4998,2.46485 L 1.513,2.47363 c 0.01322,0.0084 0.02254,0.02253 0.03923,0.02606 l 0.00838,0.00783 0.00738,0.01607 a 0.03224,0.03224 0 0 1 -0.01721,0.0213 0.04916,0.04916 0 0 0 -0.012,0.0103 0.01042,0.01042 0 0 0 -0.00248,0.0128 c 0.002,0.0038 0.00889,0.00488 0.01458,0.00209 L 1.5654,2.56075 1.56107,2.57429 C 1.55377,2.58584 1.54152,2.59374 1.53846,2.60873 1.53728,2.61451 1.52993,2.61773 1.52204,2.61723 A 0.21614,0.21614 0 0 0 1.49444,2.61899 0.08872,0.08872 0 0 1 1.45534,2.618 0.044,0.044 0 0 0 1.41486,2.61868 L 1.40624,2.617 1.40558,2.60795 1.4149,2.58172 A 0.08942,0.08942 0 0 0 1.41315,2.54032 0.007,0.007 0 0 0 1.4007,2.53741 a 0.01828,0.01828 0 0 0 -0.00568,0.018 0.0936,0.0936 0 0 1 0.002,0.04352 0.04373,0.04373 0 0 0 -8e-4,0.01961 L 1.394,2.629 1.38907,2.627 1.37693,2.55819 1.368,2.55906 1.356,2.56317 1.35145,2.54936 1.34799,2.53836 1.33227,2.5181 A 0.2801,0.2801 0 0 1 1.298,2.4463 0.47875,0.47875 0 0 1 1.28065,2.3525 C 1.2771,2.32542 1.27102,2.29905 1.26543,2.2725 L 1.26107,2.251 A 0.01155,0.01155 0 0 0 1.24437,2.242 L 1.23429,2.25087 1.22883,2.26579 a 0.10152,0.10152 0 0 0 6.7e-4,0.04148 c 0.002,0.02454 0.00234,0.04922 0.00393,0.0738 a 0.05728,0.05728 0 0 0 0.00462,0.01924 0.04575,0.04575 0 0 1 0.00434,0.025 0.06525,0.06525 0 0 0 0.00487,0.03325 0.0963,0.0963 0 0 1 0.00914,0.03035 0.07706,0.07706 0 0 0 0.0184,0.04333 0.025,0.025 0 0 1 0.00642,0.01179 0.05747,0.05747 0 0 0 0.0131,0.03069 c 0.00821,0.01176 0.02011,0.02171 0.01964,0.03822 l 0.00513,0.0083 0.00873,0.01089 A 0.037,0.037 0 0 0 1.3569,2.65337 C 1.36278,2.6693 1.36214,2.68802 1.38019,2.69426 l 10e-4,0.00335 A 0.08953,0.08953 0 0 1 1.37146,2.75123 L 1.37107,2.76265 1.3793,2.78072 a 0.08172,0.08172 0 0 0 0.04351,0.03413 c 0.00188,0.018 0.022,0.02637 0.02408,0.04572 l -0.01071,0.004 A 0.11554,0.11554 0 0 1 1.41885,2.85229 0.06548,0.06548 0 0 0 1.37074,2.87491 0.29106,0.29106 0 0 1 1.37281,2.90932 0.06268,0.06268 0 0 0 1.39618,2.95823 0.08759,0.08759 0 0 0 1.44337,2.98993 l 0.0035,0.00185 c 0.009,0.00532 0.0105,0.00876 0.0085,0.01955 L 1.45372,3.02304 c 0.003,0.01133 0.007,0.02238 0.01072,0.03352 l 0.00894,0.02628 a 0.043,0.043 0 0 0 0.0034,0.038 L 1.4779,3.13073 a 0.14253,0.14253 0 0 0 0.024,0.07089 L 1.50849,3.21379 A 0.04737,0.04737 0 0 0 1.5346,3.24773 C 1.54649,3.25325 1.5473,3.26006 1.54142,3.27262 1.5392,3.27736 1.53521,3.28213 1.53522,3.28688 A 0.04669,0.04669 0 0 1 1.52253,3.31701 l -0.01448,0.008 A 0.26859,0.26859 0 0 1 1.51205,3.29154 0.07676,0.07676 0 0 0 1.51547,3.27194 0.01452,0.01452 0 0 0 1.50722,3.25624 L 1.49969,3.2645 1.49313,3.27668 A 0.11543,0.11543 0 0 0 1.46893,3.3175 0.04053,0.04053 0 0 1 1.45364,3.33516 0.13673,0.13673 0 0 0 1.411,3.382 0.64465,0.64465 0 0 0 1.37521,3.45787 0.08445,0.08445 0 0 0 1.37041,3.50433 L 1.37222,3.5182 a 0.08745,0.08745 0 0 0 0.037,0.063 l 0.00289,0.00267 c 0.00677,0.01769 0.0289,0.02416 0.03239,0.04445 l 0.0073,0.00636 a 0.10779,0.10779 0 0 1 0.03,0.03694 0.09968,0.09968 0 0 0 0.01268,0.02223 0.19071,0.19071 0 0 1 0.01971,0.03626 c 0.00757,0.01724 0.00959,0.0199 0.02793,0.0253 L 1.53591,3.7707 1.55314,3.77033 C 1.56614,3.75988 1.58098,3.766 1.5957,3.76211 L 1.59935,3.78595 C 1.6158,3.79427 1.6176,3.79514 1.63064,3.7926 A 0.3923,0.3923 0 0 0 1.67927,3.78124 0.07232,0.07232 0 0 0 1.72149,3.75324 0.32418,0.32418 0 0 1 1.7586,3.71169 L 1.768,3.70438 C 1.78039,3.69811 1.79066,3.68863 1.8038,3.6831 A 0.19015,0.19015 0 0 0 1.83714,3.66135 L 1.84333,3.65369 a 0.0395,0.0395 0 0 1 0.015,-0.01816 L 1.8649,3.62835 A 0.33789,0.33789 0 0 1 1.89564,3.57943 0.165,0.165 0 0 0 1.92517,3.51275 L 1.92824,3.50334 A 0.05613,0.05613 0 0 0 1.93715,3.47109 0.03184,0.03184 0 0 1 1.9554,3.44339 C 1.96083,3.44683 1.96878,3.44904 1.97115,3.45394 A 0.02561,0.02561 0 0 0 1.99209,3.4698 0.06586,0.06586 0 0 0 1.98944,3.53787 l 0.01785,0.0297 -0.00125,0.01281 a 0.1304,0.1304 0 0 0 0.014,0.05966 0.09909,0.09909 0 0 0 0.02214,0.02955 0.13506,0.13506 0 0 0 0.01394,0.03118 l 0.0152,0.02232 a 0.07582,0.07582 0 0 0 0.03236,0.02308 0.09617,0.09617 0 0 0 0.06281,0.00832 l 7.8e-4,-2e-4 c 0.03088,7.8e-4 0.06188,0.0014 0.09276,0.00106 l 0.03646,-2.9e-4 0.0035,0.0035 0.01736,0.01647 a 0.061,0.061 0 0 1 0.01162,0.01331 0.0859,0.0859 0 0 0 0.03009,0.0283 0.02077,0.02077 0 0 0 0.01511,0.002 0.02576,0.02576 0 0 1 0.019,0.00361 L 2.40949,3.82976 A 0.00707,0.00707 0 0 0 2.41875,3.82231 L 2.41569,3.80578 A 0.01668,0.01668 0 0 1 2.43163,3.79738 C 2.44072,3.79766 2.43735,3.80906 2.44621,3.8116 A 0.11312,0.11312 0 0 0 2.46136,3.79514 l 0.00159,-0.0151 0.01951,0.007 -0.00593,0.01256 c 7.3e-4,0.00474 0.00412,0.01161 0.00792,0.01286 0.01048,0.00345 0.019,0.013 0.03159,0.01049 L 2.52759,3.82477 2.5481,3.8274 2.55052,3.837 A 0.20691,0.20691 0 0 1 2.66015,3.8163 L 2.659,3.80882 2.63512,3.80647 2.63564,3.79615 2.652,3.79324 2.66594,3.78551 A 0.02384,0.02384 0 0 1 2.68869,3.78315 c 0.01347,0.005 0.02732,0.00891 0.04233,0.0137 L 2.73927,3.82194 A 0.05142,0.05142 0 0 1 2.768,3.837 0.06669,0.06669 0 0 1 2.78356,3.85393 0.01978,0.01978 0 0 0 2.80017,3.8636 0.02442,0.02442 0 0 1 2.82517,3.87967 L 2.83382,3.88715 A 0.033,0.033 0 0 0 2.87062,3.874 0.01526,0.01526 0 0 0 2.86673,3.85146 L 2.86041,3.8449 2.86517,3.83941 A 0.02943,0.02943 0 0 0 2.88591,3.82579 C 2.88953,3.81919 2.98871,3.7533 3.01572,3.76005 3.07017,3.77366 3.15512,3.80415 3.16319,3.78865 3.1688,3.77786 3.17562,3.77637 3.18555,3.78409 l 0.01033,0.00963 a 0.15357,0.15357 0 0 0 9e-5,0.01613 l 7.5e-4,0.0062 A 0.39692,0.39692 0 0 1 3.28378,3.75505 0.22261,0.22261 0 0 0 3.29094,3.7217 0.0811,0.0811 0 0 1 3.3004,3.69351 0.05718,0.05718 0 0 0 3.3073,3.66687 0.03279,0.03279 0 0 1 3.3105,3.64961 0.07759,0.07759 0 0 0 3.32513,3.61161 l 0.01735,0.00728 a 0.01711,0.01711 0 0 1 0.01239,0.012 C 3.3594,3.65122 3.38155,3.6603 3.38621,3.68052 l 0.00453,0.00375 a 0.16924,0.16924 0 0 1 0.03992,0.04307 0.09114,0.09114 0 0 0 0.03292,0.0364 0.092,0.092 0 0 1 0.01524,0.01283 L 3.4905,3.78751 c 0.0138,0.01156 0.03312,0.01346 0.04625,0.02656 l 0.01289,0.0051 0.03488,0.00827 0.04975,0.01075 c 0.00734,0.01966 0.009,0.02342 0.02544,0.02914 A 0.03927,0.03927 0 0 0 3.69578,3.86901 0.02227,0.02227 0 0 1 3.71684,3.86844 0.03236,0.03236 0 0 0 3.73631,3.87054 0.1222,0.1222 0 0 0 3.804,3.82726 0.01693,0.01693 0 0 0 3.80816,3.81247 0.00826,0.00826 0 0 0 3.79573,3.80697 l -0.01172,0.0108 -0.021,0.01492 -0.01185,7.5e-4 a 0.15431,0.15431 0 0 1 0.028,-0.03453 L 3.7951,3.78429 3.8091,3.77021 3.82203,3.75507 3.83531,3.73519 a 0.14869,0.14869 0 0 0 0.0221,-0.05735 0.18736,0.18736 0 0 0 0,-0.06375 L 3.85818,3.60265 C 3.86393,3.58365 3.87139,3.56512 3.87572,3.54585 A 0.55719,0.55719 0 0 0 3.89338,3.47419 C 3.89438,3.46312 3.8997,3.45251 3.90182,3.44146 3.90582,3.42055 3.90839,3.39936 3.91251,3.37846 A 0.93555,0.93555 0 0 0 3.92224,3.2394 0.1225,0.1225 0 0 1 3.925,3.21593 0.07627,0.07627 0 0 0 3.92355,3.16909 Z M 2.57122,1.18389 A 0.038,0.038 0 0 0 2.56385,1.21371 0.05186,0.05186 0 0 1 2.55044,1.24981 C 2.54656,1.25553 2.54072,1.25531 2.53244,1.25223 A 0.01215,0.01215 0 0 1 2.52344,1.23867 L 2.52644,1.22525 2.53791,1.2 A 0.0316,0.0316 0 0 1 2.56447,1.17932 L 2.57508,1.17361 Z M 2.72029,1.17376 2.72799,1.16621 2.73755,1.17147 A 0.0138,0.0138 0 0 1 2.73594,1.19095 0.00959,0.00959 0 0 1 2.72346,1.19325 L 2.7183,1.1848 Z M 2.65795,1.21522 2.64334,1.23145 A 0.00854,0.00854 0 0 1 2.63264,1.223 L 2.62929,1.19624 2.61094,1.20263 C 2.60531,1.19608 2.60223,1.18742 2.59235,1.18597 2.58858,1.18542 2.58919,1.18197 2.59442,1.17573 a 0.14347,0.14347 0 0 0 0.06633,0.0136 0.01976,0.01976 0 0 1 -0.0028,0.0259 z m 0.02,0.05362 A 0.03,0.03 0 0 1 2.67187,1.23952 0.00866,0.00866 0 0 1 2.68182,1.232 l 0.007,0.008 A 0.02592,0.02592 0 0 1 2.678,1.26884 Z M 2.74869,1.22763 A 0.05152,0.05152 0 0 1 2.7376,1.24157 C 2.7276,1.24868 2.72588,1.25695 2.73383,1.27039 L 2.71968,1.27016 C 2.70988,1.25687 2.70088,1.24299 2.69168,1.22928 2.68857,1.22465 2.68623,1.21965 2.69059,1.21476 a 0.01256,0.01256 0 0 1 0.01478,-0.002 L 2.71073,1.21538 C 2.72515,1.22111 2.72881,1.22019 2.73999,1.20862 l 0.00476,-0.003 C 2.75317,1.21414 2.75423,1.21945 2.74872,1.22763 Z M 2.31552,1.68993 C 2.30432,1.67664 2.30404,1.67271 2.31491,1.65579 2.3181,1.66248 2.32135,1.66632 2.32151,1.67028 A 0.02145,0.02145 0 0 1 2.31555,1.68994 Z M 2.35734,1.49761 A 0.15816,0.15816 0 0 1 2.36129,1.46633 C 2.36359,1.45559 2.36735,1.44516 2.37082,1.43342 A 0.01992,0.01992 0 0 1 2.38268,1.45174 L 2.38174,1.46159 A 0.11373,0.11373 0 0 0 2.37874,1.50872 0.01392,0.01392 0 0 1 2.37246,1.52486 0.02727,0.02727 0 0 1 2.35737,1.49762 Z m 0.02423,0.289 A 0.035,0.035 0 0 1 2.37214,1.74749 L 2.38188,1.75442 2.38531,1.77914 Z M 1.53027,3.34436 1.52824,3.356 A 0.17486,0.17486 0 0 0 1.50859,3.40775 0.2022,0.2022 0 0 1 1.48575,3.4447 0.04994,0.04994 0 0 0 1.4745,3.47563 0.02861,0.02861 0 0 1 1.45968,3.50147 L 1.45331,3.49214 C 1.45143,3.48627 1.44977,3.48097 1.44315,3.47851 L 1.439,3.47226 1.43441,3.44826 1.44388,3.44119 A 0.02388,0.02388 0 0 0 1.45564,3.42592 L 1.46213,3.412 C 1.47532,3.40434 1.47992,3.38894 1.49221,3.38074 L 1.497,3.37446 A 0.21056,0.21056 0 0 0 1.52284,3.31761 c 0.00369,10e-4 0.00736,0.00218 0.00747,0.007 1.8e-4,0.00662 3e-4,0.01322 0,0.01978 z M 1.60027,2.71831 1.60714,2.71585 1.61072,2.71734 1.63789,2.7397 1.63631,2.744 1.62931,2.74384 A 0.06878,0.06878 0 0 0 1.60488,2.731 L 1.59972,2.7255 Z M 1.44892,2.76031 1.4452,2.75979 1.4402,2.75699 C 1.43632,2.74146 1.41644,2.73799 1.41395,2.72109 1.41206,2.70825 1.40377,2.69689 1.40488,2.68302 L 1.39955,2.6728 1.39263,2.6597 1.40939,2.64057 A 0.01948,0.01948 0 0 1 1.42706,2.63316 C 1.43925,2.63523 1.45113,2.63908 1.46329,2.64222 A 0.02632,0.02632 0 0 1 1.4555,2.66293 c -0.01113,0.01363 -0.01181,0.026 0.00224,0.04519 l 0.01045,0.012 c 0.008,0.01084 0.00764,0.01688 -0.002,0.026 z M 1.5155,2.93161 A 0.05983,0.05983 0 0 0 1.49858,2.93284 C 1.50244,2.92201 1.51226,2.91871 1.51804,2.9104 A 0.031,0.031 0 0 1 1.53217,2.93487 C 1.52537,2.938 1.5209,2.9329 1.51558,2.93167 Z m 0.01373,0.02306 a 0.016,0.016 0 0 1 0.0146,0.00776 C 1.54293,2.96836 1.53922,2.97064 1.53406,2.96916 1.5289,2.96768 1.52397,2.9651 1.52406,2.95884 Z M 1.60076,3.22125 1.59539,3.2132 1.62099,3.20384 1.62247,3.21976 A 0.17219,0.17219 0 0 1 1.60084,3.2213 Z M 1.65424,3.1964 1.6646,3.1814 1.6266,3.16931 1.64041,3.15868 1.67222,3.17153 1.67885,3.19421 Z M 1.67385,2.89168 A 0.09414,0.09414 0 0 0 1.66517,2.92386 L 1.6554,2.97459 1.65429,2.98647 1.65345,2.99829 a 0.21575,0.21575 0 0 0 -0.0118,0.0558 c -0.004,0.0188 -0.00928,0.03734 -0.01375,0.056 L 1.62614,3.12389 C 1.62445,3.13277 1.61738,3.13498 1.60961,3.13003 1.60161,3.12495 1.60234,3.1163 1.59908,3.10684 A 0.03626,0.03626 0 0 1 1.57069,3.07624 0.02524,0.02524 0 0 0 1.55742,3.05996 L 1.53689,3.0479 A 0.02874,0.02874 0 0 1 1.53289,3.00447 C 1.53946,2.99681 1.53946,2.99681 1.54928,2.99695 l 0.00107,0.01351 a 0.02845,0.02845 0 0 0 0.02226,0.02868 0.01273,0.01273 0 0 1 0.0108,0.0124 l 0.0018,0.00765 a 0.02474,0.02474 0 0 0 0.01036,0.00823 c 0.00823,0.00227 0.024,-0.009 0.02622,-0.01766 A 0.01957,0.01957 0 0 0 1.6066,3.024 C 1.59122,3.01867 1.588,3.01329 1.59074,2.99729 L 1.59237,2.99152 A 0.01977,0.01977 0 0 0 1.58746,2.96975 0.0495,0.0495 0 0 1 1.57819,2.95026 0.02058,0.02058 0 0 1 1.5838,2.92882 L 1.59843,2.93248 A 0.031,0.031 0 0 0 1.62959,2.92527 0.06153,0.06153 0 0 0 1.64671,2.89486 C 1.64852,2.88997 1.64803,2.88979 1.6411,2.87809 A 0.026,0.026 0 0 0 1.62118,2.88871 0.02035,0.02035 0 0 1 1.5999,2.89633 0.08132,0.08132 0 0 0 1.5839,2.89548 0.05165,0.05165 0 0 0 1.54502,2.90787 0.04282,0.04282 0 0 1 1.51925,2.88745 L 1.5095,2.87494 A 0.06306,0.06306 0 0 1 1.49789,2.85887 0.09761,0.09761 0 0 0 1.47046,2.82013 L 1.46761,2.81735 C 1.46349,2.80992 1.45709,2.80295 1.4605,2.79349 1.46443,2.78258 1.47533,2.78089 1.48432,2.7772 l 0.00827,0.00384 a 0.069,0.069 0 0 0 0.01952,0.02237 l 0.00466,0.00863 c 0.006,0.01284 0.0072,0.0136 0.02575,0.01562 L 1.54161,2.81656 A 0.27026,0.27026 0 0 1 1.52786,2.79022 0.33929,0.33929 0 0 1 1.51607,2.74415 0.05141,0.05141 0 0 1 1.51998,2.72615 l 0.03677,-0.006 7.2e-4,-4.8e-4 c 0.01374,-0.0161 0.01633,-0.01623 0.03008,7e-5 l 0.0067,0.01248 -0.016,0.01072 C 1.58162,2.74942 1.58781,2.74843 1.59212,2.74785 A 0.03093,0.03093 0 0 1 1.61931,2.75748 0.02284,0.02284 0 0 0 1.6305,2.78039 0.14563,0.14563 0 0 1 1.64414,2.79491 l 0.02031,0.019 0.00668,0.00676 a 0.02758,0.02758 0 0 0 0.014,0.01345 0.0325,0.0325 0 0 1 0.01547,0.0165 0.27488,0.27488 0 0 0 -0.02666,0.04111 z M 1.74512,3.23074 1.73802,3.22935 1.7271,3.21282 1.74331,3.2141 1.74944,3.2231 Z M 1.80728,3.5401 A 0.00674,0.00674 0 0 1 1.79664,3.53356 0.27768,0.27768 0 0 1 1.804,3.50122 L 1.8113,3.49586 1.81862,3.50074 1.82246,3.51568 A 0.0273,0.0273 0 0 1 1.80737,3.54014 Z M 3.66978,2.05983 3.67314,2.04425 A 0.02816,0.02816 0 0 1 3.68019,2.02633 0.12344,0.12344 0 0 1 3.71046,2.09826 C 3.69838,2.10239 3.68553,2.10578 3.67356,2.11115 a 0.47254,0.47254 0 0 0 -0.042,0.02231 L 3.62442,2.14285 3.61708,2.15157 3.60761,2.116 A 0.01614,0.01614 0 0 0 3.59938,2.10537 L 3.5891,2.09637 3.58223,2.08955 C 3.5684,2.08764 3.56284,2.07502 3.55123,2.06845 L 3.55764,2.05321 3.609,2.05065 c 0.006,-2.5e-4 0.012,9e-5 0.01793,2.5e-4 a 0.026,0.026 0 0 1 0.0235,0.01208 C 3.65632,2.072 3.66625,2.07 3.66987,2.05987 Z M 3.65321,1.95 3.65783,1.96206 3.64729,1.96729 3.61983,1.97229 A 0.0111,0.0111 0 0 0 3.60923,1.98281 L 3.62783,2 3.63423,2.00983 A 0.007,0.007 0 0 1 3.62994,2.01964 0.25816,0.25816 0 0 1 3.59872,2.02608 C 3.59132,2.02708 3.58796,2.02293 3.58834,2.01501 l 0.002,-0.01258 A 0.02305,0.02305 0 0 0 3.56821,2.00864 0.26,0.26 0 0 0 3.5479,2.02783 0.02766,0.02766 0 0 0 3.53942,2.04928 c 0,0.01858 -0.01173,0.02354 -0.02865,0.01339 0,-0.01225 7.2e-4,-0.02419 -1.7e-4,-0.036 A 0.07148,0.07148 0 0 0 3.492,1.97754 L 3.48665,1.96712 3.48087,1.926 A 0.14365,0.14365 0 0 1 3.50907,1.91567 0.04277,0.04277 0 0 1 3.53201,1.9199 0.0664,0.0664 0 0 1 3.56233,1.94161 0.20311,0.20311 0 0 0 3.58575,1.96887 c 0.008,0.00824 0.01623,0.00718 0.0202,-0.00353 a 0.043,0.043 0 0 1 0.023,-0.02362 C 3.64062,1.93582 3.6472,1.93836 3.65321,1.95 Z M 3.55635,1.61927 3.55315,1.65318 3.54215,1.63374 Z M 3.53164,1.59466 C 3.54437,1.60531 3.54309,1.61237 3.52564,1.6255 3.51926,1.61231 3.52882,1.60455 3.53165,1.59469 Z m -0.46809,0.446 a 0.75778,0.75778 0 0 1 0.05037,-0.07125 0.83088,0.83088 0 0 1 0.06,-0.07188 L 3.18461,1.88927 c 0.01377,0.00966 0.0166,0.0106 0.0285,0.00211 A 0.1452,0.1452 0 0 1 3.24675,1.87421 0.20682,0.20682 0 0 0 3.3,1.84306 0.35581,0.35581 0 0 1 3.33253,1.82 0.07163,0.07163 0 0 1 3.35134,1.81448 a 0.11476,0.11476 0 0 0 0.019,-0.005 c 0.01938,-0.009 0.02485,-0.0084 0.0405,0.00624 L 3.41849,1.82077 A 0.05146,0.05146 0 0 1 3.45076,1.79593 0.06509,0.06509 0 0 1 3.49891,1.8011 l 0.0032,0.00238 C 3.50769,1.80836 3.51042,1.81507 3.5085,1.81911 3.50658,1.82315 3.49962,1.82536 3.49229,1.82132 A 0.05072,0.05072 0 0 0 3.45165,1.81848 L 3.44681,1.82195 a 0.01359,0.01359 0 0 0 0.01526,0.00713 0.21928,0.21928 0 0 1 0.07745,0.01465 l 0.00555,0.00219 a 0.095,0.095 0 0 1 0.03167,0.01065 0.1522,0.1522 0 0 1 0.02683,0.03445 0.06553,0.06553 0 0 0 0.01386,0.01665 0.03507,0.03507 0 0 1 0.01352,0.023 L 3.62136,1.935 A 0.151,0.151 0 0 1 3.59195,1.9302 0.20806,0.20806 0 0 0 3.55511,1.92164 C 3.53586,1.91964 3.53245,1.91146 3.54238,1.89477 L 3.54963,1.88456 A 0.06722,0.06722 0 0 0 3.50829,1.89033 C 3.49329,1.89426 3.48606,1.90645 3.4759,1.91797 L 3.46457,1.911 3.45713,1.9017 A 0.02,0.02 0 0 0 3.43254,1.88936 L 3.42893,1.87014 3.41247,1.8599 A 0.00808,0.00808 0 0 0 3.3996,1.86673 0.04056,0.04056 0 0 0 3.40733,1.90065 L 3.40891,1.90943 3.40061,1.91296 3.38088,1.90996 C 3.37226,1.90875 3.36856,1.91203 3.36839,1.92077 l 4.8e-4,0.004 A 0.01872,0.01872 0 0 1 3.3617,1.9441 0.17452,0.17452 0 0 0 3.32988,1.98243 L 3.32112,2.00034 3.32357,2.00891 3.33442,2.00859 3.33824,2.00399 3.343,1.99755 a 0.06393,0.06393 0 0 0 0.0277,-0.044 C 3.3713,1.94941 3.37535,1.94578 3.37775,1.942 3.38594,1.94617 3.38594,1.94617 3.39189,1.95923 l 0.01466,8.8e-4 c 0.01056,0 0.02114,-6.3e-4 0.03169,-3.6e-4 A 0.00972,0.00972 0 0 1 3.448,1.9704 c -6.8e-4,0.013 0.0063,0.01882 0.01718,0.02358 A 0.25071,0.25071 0 0 1 3.49458,2.01091 0.01806,0.01806 0 0 1 3.50325,2.0278 0.06943,0.06943 0 0 1 3.49572,2.06455 0.03,0.03 0 0 1 3.47426,2.08035 0.06091,0.06091 0 0 0 3.44517,2.09035 0.02356,0.02356 0 0 0 3.42109,2.10093 C 3.41426,2.11071 3.40358,2.11706 3.39774,2.12805 L 3.38432,2.13529 A 0.10959,0.10959 0 0 0 3.36587,2.14218 0.09727,0.09727 0 0 1 3.28969,2.15367 0.05284,0.05284 0 0 0 3.27598,2.15219 0.00738,0.00738 0 0 0 3.27116,2.16429 l 0.0027,0.00293 c 0.0111,0.01189 0.01116,0.01192 0.00359,0.02484 A 0.10184,0.10184 0 0 0 3.26067,2.22784 L 3.25454,2.2392 3.2412,2.23605 3.21483,2.22741 C 3.20719,2.22503 3.20435,2.22079 3.20891,2.21414 3.21491,2.20541 3.21338,2.19964 3.20601,2.19445 3.19568,2.19586 3.18601,2.19783 3.17633,2.19831 A 0.01267,0.01267 0 0 1 3.16271,2.18431 C 3.16495,2.1659 3.16802,2.14759 3.17065,2.12995 3.18528,2.12365 3.18528,2.12365 3.20293,2.12937 L 3.20478,2.1537 3.214,2.14986 A 0.04911,0.04911 0 0 0 3.2261,2.13425 0.02909,0.02909 0 0 1 3.2477,2.11396 L 3.26593,2.06905 3.25544,2.06926 C 3.24979,2.07581 3.23735,2.06788 3.23433,2.07952 L 3.22888,2.081 3.20306,2.07875 A 0.00791,0.00791 0 0 1 3.19758,2.06542 L 3.20687,2.055 A 0.01008,0.01008 0 0 0 3.20454,2.03934 L 3.19014,2.03387 A 0.16193,0.16193 0 0 0 3.1722,2.03463 0.06436,0.06436 0 0 1 3.15444,2.03312 0.04033,0.04033 0 0 0 3.11074,2.04178 L 3.0993,2.04947 3.09342,2.06139 c -10e-4,0.00582 0.005,0.01177 0.00984,0.00933 C 3.11684,2.0638 3.13088,2.07286 3.14453,2.06812 3.14876,2.06665 3.15486,2.06961 3.15981,2.07137 l 0.0202,0.00855 A 0.03759,0.03759 0 0 1 3.1822,2.1117 C 3.17141,2.11502 3.16175,2.1204 3.1632,2.1348 L 3.15084,2.1377 A 0.27572,0.27572 0 0 1 3.07765,2.13044 0.03008,0.03008 0 0 0 3.05453,2.13073 c -0.0054,0.016 -0.00376,0.02106 0.00888,0.02762 l 0.01067,0.00533 0.0077,0.00711 A 0.03736,0.03736 0 0 1 3.09487,2.168 0.02586,0.02586 0 0 1 3.10857,2.17473 C 3.12568,2.19237 3.12547,2.19257 3.14798,2.18624 3.1483,2.20219 3.13245,2.20285 3.12508,2.21175 A 0.05094,0.05094 0 0 0 3.12639,2.2506 l 0.01813,0.00967 c 0.00175,0.00993 -0.00771,0.0127 -0.01,0.01928 l 7.9e-4,0.00894 c 0.00283,0.004 0.00707,0.00268 0.01053,0 L 3.14979,2.28406 3.15311,2.2768 A 0.08676,0.08676 0 0 1 3.18659,2.23351 C 3.1954,2.22732 3.19718,2.227 3.20614,2.23204 L 3.22734,2.2429 3.23589,2.24754 3.23802,2.25654 3.23067,2.26167 3.22094,2.2603 3.21129,2.2591 A 0.03316,0.03316 0 0 1 3.1819,2.25644 L 3.19666,2.29132 3.17435,2.31619 A 0.041,0.041 0 0 0 3.16262,2.33669 C 3.16117,2.34683 3.16588,2.35238 3.1757,2.35105 A 0.00877,0.00877 0 0 0 3.18398,2.34153 0.02371,0.02371 0 0 1 3.20211,2.31801 0.01508,0.01508 0 0 0 3.21311,2.30765 0.0126,0.0126 0 0 1 3.22911,2.29909 0.081,0.081 0 0 1 3.24987,2.30585 0.0535,0.0535 0 0 0 3.27681,2.31177 0.03838,0.03838 0 0 1 3.3161,2.33962 l 0.022,0.05566 -0.017,0.05436 A 0.01825,0.01825 0 0 1 3.30091,2.45157 0.06209,0.06209 0 0 0 3.2816,2.44733 0.03935,0.03935 0 0 1 3.25753,2.43951 0.02984,0.02984 0 0 0 3.2406,2.4352 C 3.22607,2.43462 3.21151,2.43501 3.1976,2.43501 A 0.01575,0.01575 0 0 1 3.19676,2.41559 L 3.20151,2.40485 A 0.00841,0.00841 0 0 0 3.19516,2.394 L 3.17348,2.39163 A 0.01913,0.01913 0 0 1 3.15391,2.3808 0.0253,0.0253 0 0 0 3.1333,2.3669 L 3.10195,2.36061 A 0.09636,0.09636 0 0 1 3.04795,2.33587 L 3.03975,2.34655 3.02947,2.36119 A 0.04888,0.04888 0 0 0 3.01805,2.38188 0.13043,0.13043 0 0 1 3.01019,2.40006 L 2.99956,2.42588 2.97918,2.47139 2.973,2.47923 A 0.01789,0.01789 0 0 1 2.96636,2.45894 0.14686,0.14686 0 0 1 2.97569,2.4202 0.2234,0.2234 0 0 0 2.98923,2.3602 L 2.99011,2.35229 A 0.04836,0.04836 0 0 0 2.98962,2.31166 0.02423,0.02423 0 0 1 2.991,2.29035 0.11436,0.11436 0 0 0 3.00252,2.24441 C 3.00452,2.22532 3.0108,2.20672 3.01418,2.18772 3.01745,2.16936 3.02667,2.15282 3.02946,2.1344 a 0.05284,0.05284 0 0 0 0.002,-0.01381 0.0595,0.0595 0 0 1 0.00972,-0.036 0.065,0.065 0 0 0 0.00714,-0.01646 0.05068,0.05068 0 0 1 0.014,-0.026 z m 0.288,0.33626 0.02241,0.00283 -0.00474,0.01112 0.00846,0.0044 A 0.05562,0.05562 0 0 1 3.41742,2.4241 0.01923,0.01923 0 0 0 3.4337,2.43433 0.04609,0.04609 0 0 1 3.46848,2.45118 l 0.00657,0.00447 c 0.00733,0.00372 0.01327,0.00651 0.01054,0.01789 -0.00168,0.007 0.00645,0.01385 0.01319,0.01834 L 3.50945,2.49727 A 0.04219,0.04219 0 0 1 3.53204,2.52693 0.09121,0.09121 0 0 1 3.49046,2.52568 0.15978,0.15978 0 0 1 3.46635,2.51668 0.01536,0.01536 0 0 1 3.45635,2.50281 C 3.45568,2.49103 3.44867,2.48672 3.43804,2.486 L 3.43017,2.485 A 0.19412,0.19412 0 0 1 3.379,2.47929 L 3.36955,2.47656 C 3.35041,2.46925 3.35008,2.46877 3.35355,2.44911 A 0.03541,0.03541 0 0 0 3.34866,2.41876 0.015,0.015 0 0 1 3.34889,2.4 0.02209,0.02209 0 0 0 3.35157,2.37694 Z M 3.5415,2.651 C 3.52237,2.65016 3.51094,2.63679 3.49527,2.62968 L 3.49845,2.623 3.50918,2.62322 C 3.51333,2.63335 3.52272,2.63447 3.53099,2.63801 3.53549,2.64 3.54124,2.64181 3.5415,2.651 Z M 3.4541,2.64182 3.45337,2.6364 3.45518,2.61928 3.47077,2.61293 C 3.47491,2.637 3.4726,2.64105 3.45411,2.64183 Z M 3.46401,2.80332 3.46207,2.81909 3.45137,2.80065 3.46409,2.788 C 3.47225,2.79569 3.46548,2.79894 3.464,2.80334 Z M 3.36644,2.67163 a 0.05908,0.05908 0 0 0 0.01793,0.00823 0.08378,0.08378 0 0 1 0.04,0.02106 l 0.0116,0.0077 0.00867,0.008 A 0.0095,0.0095 0 0 1 3.43732,2.73251 0.33746,0.33746 0 0 1 3.40278,2.72781 l -0.007,0.005 C 3.38292,2.72658 3.3715,2.72002 3.35931,2.71557 A 0.05253,0.05253 0 0 0 3.33773,2.71433 L 3.31836,2.71891 A 0.02158,0.02158 0 0 1 3.30122,2.71747 0.1985,0.1985 0 0 0 3.27332,2.70754 H 3.26356 L 3.20406,2.72221 3.20021,2.738 A 0.0307,0.0307 0 0 1 3.185,2.76244 0.07187,0.07187 0 0 0 3.16112,2.78871 0.02711,0.02711 0 0 1 3.14712,2.80182 0.0317,0.0317 0 0 1 3.12435,2.79849 0.09212,0.09212 0 0 1 3.09325,2.77474 0.12122,0.12122 0 0 0 3.07497,2.75942 0.03442,0.03442 0 0 1 3.06466,2.74779 0.02564,0.02564 0 0 0 3.035,2.73019 L 3.0263,2.72889 3.03148,2.71295 3.02683,2.70995 3.00908,2.70722 A 0.00921,0.00921 0 0 1 3.00481,2.69058 0.06767,0.06767 0 0 0 3.02245,2.6649 0.16394,0.16394 0 0 1 3.04572,2.63284 l 0.01616,-0.019 A 0.11442,0.11442 0 0 1 3.12071,2.63177 L 3.13678,2.62625 a 0.01312,0.01312 0 0 1 0.01573,0.01138 l 0.00238,0.02146 0.00522,0.02112 c 0.00124,0.00544 0.00278,0.0105 0.00926,0.01152 A 0.01726,0.01726 0 0 0 3.18747,2.6821 0.03988,0.03988 0 0 0 3.1818,2.641 0.04164,0.04164 0 0 0 3.16806,2.63008 0.0084,0.0084 0 0 1 3.16653,2.61525 C 3.17447,2.60825 3.18314,2.60208 3.19167,2.59578 L 3.20174,2.5896 3.20364,2.58277 3.19764,2.57896 A 0.02239,0.02239 0 0 1 3.17119,2.56915 0.13511,0.13511 0 0 1 3.11548,2.57138 0.00907,0.00907 0 0 1 3.108,2.558 0.07061,0.07061 0 0 1 3.12021,2.54 C 3.13988,2.51931 3.15995,2.499 3.18013,2.47878 L 3.1902,2.47361 A 0.04536,0.04536 0 0 0 3.22037,2.4663 l 0.005,-4.3e-4 A 0.07908,0.07908 0 0 1 3.2581,2.52072 L 3.27764,2.53804 3.29125,2.54587 A 0.02567,0.02567 0 0 1 3.30615,2.55461 0.01564,0.01564 0 0 1 3.28661,2.56734 L 3.2612,2.56552 C 3.25715,2.56881 3.25447,2.57743 3.2442,2.57657 3.23778,2.57604 3.23551,2.58123 3.23735,2.58791 c 0.00284,0.01032 0.00548,0.021 0.01779,0.02458 l 0.00349,0.00192 c 0.00858,0.00478 0.01285,0.0177 0.02337,0.01686 0.01107,-8.8e-4 0.01874,0.00628 0.02856,0.0075 l 0.01247,0.0051 A 0.37387,0.37387 0 0 1 3.36645,2.67165 Z M 3.20324,2.82184 3.19358,2.82732 A 0.01213,0.01213 0 0 1 3.17528,2.8189 V 2.80726 C 3.18272,2.79331 3.18971,2.77846 3.20804,2.77559 L 3.21522,2.77406 C 3.23073,2.77925 3.24209,2.79761 3.26163,2.78394 L 3.26646,2.79625 3.27955,2.80818 A 0.06386,0.06386 0 0 0 3.29921,2.81666 C 3.31146,2.81917 3.32403,2.82008 3.34049,2.82217 L 3.33378,2.83647 3.3206,2.84529 3.31355,2.85177 C 3.31136,2.86822 3.29701,2.87377 3.28623,2.88155 A 0.0817,0.0817 0 0 0 3.25723,2.91061 0.018,0.018 0 0 1 3.23504,2.92131 0.11882,0.11882 0 0 0 3.21889,2.8822 C 3.21935,2.86635 3.19989,2.86179 3.19881,2.84538 L 3.21289,2.83357 C 3.21381,2.82678 3.20984,2.82391 3.20325,2.82186 Z M 3.00242,2.11077 a 0.01,0.01 0 0 1 0.00882,-0.011 c 0.00518,-4.6e-4 0.00892,0.004 0.00879,0.01054 A 0.0101,0.0101 0 0 1 3.01116,2.12136 C 3.00615,2.12191 3.00229,2.11725 3.00243,2.11079 Z M 3.025,1.99543 3.03429,1.98812 C 3.04422,1.98271 3.05189,1.987 3.05123,1.9982 A 0.13661,0.13661 0 0 1 3.04654,2.02755 C 3.042,2.04346 3.03634,2.05906 3.03071,2.07464 L 3.02287,2.0901 3.01844,2.08889 C 3.01821,2.08449 3.01771,2.08009 3.01782,2.0757 3.01793,2.07111 3.01902,2.06653 3.01894,2.06197 A 0.00519,0.00519 0 0 0 3.01018,2.05841 L 2.99778,2.07715 2.99009,2.073 2.98755,2.05983 A 0.15913,0.15913 0 0 1 3.01145,2.01 Z M 2.99325,1.94727 c 0.00531,2.3e-4 0.009,0.00348 0.00846,0.00861 L 2.99644,1.96279 C 2.98831,1.96236 2.98362,1.95807 2.98444,1.95312 2.98526,1.94839 2.98908,1.9471 2.99322,1.94727 Z M 2.9368,1.6668 2.94421,1.66165 c 0.004,-2.8e-4 0.00854,0.00224 0.0081,0.00679 a 0.04472,0.04472 0 0 0 0.00589,0.02808 0.06029,0.06029 0 0 1 0.00293,0.022 C 2.94428,1.71561 2.94225,1.70891 2.94501,1.69752 2.94701,1.68941 2.94801,1.68207 2.93852,1.67728 A 0.00715,0.00715 0 0 1 2.9368,1.6668 Z M 2.8774,1.61154 A 0.00825,0.00825 0 0 1 2.86978,1.62097 c -0.00655,0 -0.0117,-0.00323 -0.012,-0.00761 A 0.00923,0.00923 0 0 1 2.86573,1.60381 0.01,0.01 0 0 1 2.8774,1.61154 Z M 2.85747,1.55274 2.84977,1.5372 a 0.0691,0.0691 0 0 1 0.01682,0.004 L 2.8718,1.55066 2.86816,1.55441 Z M 2.85862,1.26883 2.86307,1.26045 a 0.0102,0.0102 0 0 1 0.011,0.01051 0.00961,0.00961 0 0 1 -0.00813,0.00952 C 2.86154,1.28074 2.8578,1.27572 2.85861,1.26883 Z M 2.84624,1.30668 2.85008,1.31297 2.846,1.31888 A 0.05365,0.05365 0 0 1 2.8056,1.31812 L 2.803,1.27179 c 0.01751,-0.0054 0.02014,-0.00433 0.024,0.009 L 2.83249,1.3033 Z M 2.53407,1.555 2.54485,1.55987 2.5614,1.56751 2.57347,1.55151 2.60386,1.54983 2.61878,1.57574 A 0.00812,0.00812 0 0 1 2.61363,1.58826 0.04926,0.04926 0 0 1 2.59215,1.58951 c -0.012,-0.00346 -0.02483,0 -0.03674,-0.00621 -0.00457,-0.00239 -0.01273,0.00119 -0.01893,0.0031 -0.005,0.00154 -0.00942,0.00511 -0.01755,7.2e-4 0,-0.00726 -3.5e-4,-0.01444 9e-5,-0.02157 A 0.01072,0.01072 0 0 1 2.53407,1.555 Z M 2.51286,1.4447 2.52161,1.43825 2.52533,1.44153 2.52149,1.45153 2.5089,1.45731 Z M 2.45786,1.63483 2.46537,1.63012 2.47164,1.63628 2.46736,1.64589 A 0.00575,0.00575 0 0 1 2.45769,1.64422 Z M 2.29937,2.46743 A 0.06072,0.06072 0 0 0 2.28831,2.43807 0.06638,0.06638 0 0 1 2.277,2.40348 L 2.29565,2.39013 a 0.06976,0.06976 0 0 1 0.03653,7.3e-4 0.15009,0.15009 0 0 0 0.0375,0.0029 0.07485,0.07485 0 0 1 0.03684,0.01293 L 2.40838,2.41154 2.39907,2.41705 2.39041,2.41976 c -0.006,0.00871 -0.00124,0.02193 -0.01391,0.026 -0.00888,0 -0.00722,-0.01 -0.01232,-0.01363 L 2.36028,2.433 C 2.34988,2.43838 2.34928,2.43844 2.34354,2.43212 L 2.33878,2.42574 A 0.01311,0.01311 0 0 0 2.32441,2.42144 C 2.31809,2.42331 2.31676,2.42794 2.31641,2.43368 L 2.31355,2.46753 2.31017,2.478 A 0.00976,0.00976 0 0 1 2.29937,2.46746 Z M 2.05146,3.11373 A 0.04491,0.04491 0 0 0 2.08436,3.11014 0.13735,0.13735 0 0 1 2.115,3.09674 C 2.12024,3.0849 2.13384,3.08261 2.14155,3.07356 l 0.006,-0.00529 A 0.154,0.154 0 0 0 2.196,3.0165 0.22936,0.22936 0 0 1 2.22074,2.99118 0.103,0.103 0 0 1 2.24504,2.97088 C 2.25923,2.96274 2.25898,2.96231 2.27574,2.96706 L 2.27609,2.95963 C 2.276,2.95408 2.27956,2.9529 2.28395,2.95342 A 0.00668,0.00668 0 0 1 2.28972,2.96211 L 2.28753,2.96765 A 0.3071,0.3071 0 0 1 2.20879,3.05329 C 2.20098,3.06746 2.18088,3.06905 2.17555,3.08576 2.16293,3.09656 2.15079,3.10798 2.13748,3.11785 A 0.03636,0.03636 0 0 0 2.12423,3.13201 0.02576,0.02576 0 0 1 2.10553,3.14566 L 2.05347,3.15889 A 0.01414,0.01414 0 0 1 2.03611,3.14126 l 0.00675,-0.026 z M 2.04557,3.09143 a 0.008,0.008 0 0 1 0.00912,-0.008 L 2.06575,3.08709 2.07075,3.0944 2.065,3.10157 2.05875,3.10344 A 0.01117,0.01117 0 0 1 2.04557,3.09146 Z M 2.26479,2.93382 A 0.07783,0.07783 0 0 1 2.28048,2.89442 C 2.28619,2.88578 2.28335,2.87275 2.2956,2.86689 A 0.0201,0.0201 0 0 1 2.30413,2.89024 0.22564,0.22564 0 0 1 2.29777,2.92257 C 2.29158,2.93744 2.283,2.94082 2.2648,2.93385 Z M 2.243,3.37057 c 0.00269,0.00267 0.00414,0.0056 -5.6e-4,0.007 L 2.23644,3.37435 C 2.23108,3.36616 2.23174,3.36429 2.24302,3.35271 2.24676,3.36 2.23728,3.36492 2.243,3.37057 Z M 2.33655,2.59763 2.35349,2.60363 2.34255,2.61891 Z M 2.30333,2.75618 2.29046,2.76365 2.28046,2.74459 C 2.30064,2.742 2.30064,2.742 2.30331,2.75618 Z M 2.26719,2.83 C 2.27558,2.826 2.27495,2.81893 2.27591,2.81244 2.27771,2.80035 2.2876,2.79544 2.2967,2.79024 c 0.004,-0.00225 0.00956,0.003 0.00865,0.0079 L 2.30135,2.8115 A 0.60122,0.60122 0 0 1 2.26441,2.87629 0.308,0.308 0 0 0 2.237,2.927 0.037,0.037 0 0 1 2.20706,2.95007 0.06372,0.06372 0 0 0 2.18548,2.95898 C 2.17788,2.96359 2.17266,2.97261 2.16206,2.97198 L 2.16023,2.97508 2.16306,2.97959 A 0.01437,0.01437 0 0 0 2.17961,2.9762 0.041,0.041 0 0 1 2.20054,2.96533 l 0.0053,0.00142 0.001,0.00707 A 0.10555,0.10555 0 0 1 2.1749,3.00582 L 2.16606,3.01319 a 0.1432,0.1432 0 0 0 -0.015,0.01834 C 2.1376,3.05296 2.11312,3.0616 2.09645,3.0793 A 0.01,0.01 0 0 1 2.08151,3.08074 L 2.08622,3.0662 A 0.028,0.028 0 0 1 2.1067,3.04626 L 2.11631,3.04377 2.12582,3.03723 2.13251,3.01899 C 2.13505,3.01399 2.14179,3.01067 2.13788,3.00345 A 0.191,0.191 0 0 0 2.15072,2.96113 0.02846,0.02846 0 0 1 2.16387,2.94433 C 2.17152,2.93933 2.18019,2.93477 2.17898,2.92302 L 2.18371,2.91762 2.19336,2.91006 2.19176,2.90465 C 2.1865,2.9003 2.18398,2.89506 2.18815,2.88904 2.19232,2.88302 2.19883,2.8846 2.2046,2.88623 L 2.21598,2.89153 2.22265,2.86842 A 0.03929,0.03929 0 0 1 2.23378,2.84768 L 2.23947,2.83757 A 0.02347,0.02347 0 0 1 2.25115,2.82424 Z M 2.07511,2.95355 2.07855,2.94417 A 0.06531,0.06531 0 0 1 2.09598,2.93117 0.05834,0.05834 0 0 0 2.11542,2.91517 0.04488,0.04488 0 0 1 2.1566,2.90079 L 2.15394,2.91093 2.12921,2.9416 A 0.01355,0.01355 0 0 1 2.11184,2.94721 0.01176,0.01176 0 0 0 2.0991,2.9497 0.02969,0.02969 0 0 1 2.07511,2.9535 Z M 2.19218,2.81261 2.2004,2.80379 2.20748,2.8084 2.21439,2.81597 C 2.20533,2.822 2.19922,2.81909 2.19219,2.81256 Z m 0.0588,-0.058 a 0.05845,0.05845 0 0 1 0.004,0.0406 C 2.24498,2.7938 2.23886,2.78972 2.23758,2.77921 Z M 2.03038,2.69843 A 0.04865,0.04865 0 0 0 2.06011,2.66563 0.06128,0.06128 0 0 1 2.07726,2.644 L 2.08449,2.64169 A 0.00917,0.00917 0 0 1 2.09334,2.65552 0.063,0.063 0 0 0 2.09028,2.70566 0.02868,0.02868 0 0 0 2.10399,2.72454 C 2.11176,2.72363 2.11324,2.71747 2.11394,2.71163 A 0.10157,0.10157 0 0 0 2.11344,2.69569 0.02169,0.02169 0 0 1 2.11965,2.67577 0.01668,0.01668 0 0 0 2.12265,2.663 0.02741,0.02741 0 0 1 2.13656,2.63434 L 2.14943,2.62497 a 0.0154,0.0154 0 0 1 0.02378,0.00594 l 0.00359,0.00708 0.041,0.01793 0.011,0.01047 A 0.04673,0.04673 0 0 1 2.24458,2.68654 L 2.24522,2.6978 2.24243,2.703 a 0.16557,0.16557 0 0 0 -0.019,0.05158 C 2.21989,2.76803 2.215,2.77126 2.2018,2.7671 2.18921,2.76313 2.177,2.758 2.16464,2.7534 2.16269,2.7404 2.17444,2.73645 2.17946,2.72848 A 0.08349,0.08349 0 0 0 2.19215,2.70161 C 2.18468,2.69522 2.17715,2.69389 2.17046,2.70056 a 0.04956,0.04956 0 0 1 -0.01965,0.013 L 2.1433,2.7198 C 2.13706,2.7318 2.12458,2.73643 2.11509,2.74452 A 0.021,0.021 0 0 1 2.08478,2.74552 0.07409,0.07409 0 0 1 2.06664,2.73052 0.05119,0.05119 0 0 0 2.0309,2.70752 L 2.02713,2.70415 Z M 1.94547,2.81322 C 1.93947,2.81088 1.93153,2.81231 1.92806,2.80516 A 0.043,0.043 0 0 1 1.92227,2.7745 0.1519,0.1519 0 0 1 1.93346,2.74924 L 1.94034,2.73971 A 0.02445,0.02445 0 0 1 1.96324,2.72353 L 1.99574,2.71871 2.00816,2.72224 2.04237,2.73283 2.0546,2.739 C 2.08082,2.75686 2.0736,2.75708 2.05543,2.77683 2.04091,2.78319 2.03077,2.79641 2.01518,2.80152 A 0.15144,0.15144 0 0 0 1.98897,2.81552 0.03067,0.03067 0 0 1 1.96045,2.81861 Z M 1.96947,3.01268 1.96334,2.999 1.958,2.97587 A 0.03581,0.03581 0 0 1 1.96173,2.94 0.01644,0.01644 0 0 0 1.96451,2.925 L 1.96076,2.90549 a 0.026,0.026 0 0 1 0.0075,-0.029 0.01822,0.01822 0 0 0 0.0035,-0.02781 l 6.5e-4,-0.005 C 1.98081,2.83884 1.99126,2.84095 2.00057,2.83836 2.00943,2.8359 2.01787,2.83192 2.0263,2.82869 L 2.04575,2.84557 2.0505,2.85613 c 0.00292,0.00706 0.007,0.01 0.01331,0.00939 A 0.0124,0.0124 0 0 0 2.07394,2.85258 c 2.9e-4,-0.00925 0,-0.01853 -3.9e-4,-0.02778 A 0.02594,0.02594 0 0 1 2.08871,2.79924 C 2.10824,2.78824 2.12714,2.77619 2.14881,2.76305 A 0.09039,0.09039 0 0 1 2.19738,2.78457 L 2.18764,2.79678 C 2.16715,2.81565 2.15072,2.83822 2.13128,2.85803 L 2.12456,2.8653 C 2.10745,2.87391 2.09748,2.89077 2.08222,2.90147 L 2.07534,2.90864 2.06759,2.92218 2.05559,2.92759 A 0.26224,0.26224 0 0 1 2.02122,2.95748 L 2.01041,2.96596 A 0.02917,0.02917 0 0 0 1.99831,2.97852 0.14772,0.14772 0 0 1 1.96943,3.01267 Z M 2.45835,2.358 2.4496,2.34048 c -0.01848,0.00954 -0.01985,0.013 -0.02256,0.056 A 0.03642,0.03642 0 0 1 2.39748,2.38011 0.02875,0.02875 0 0 1 2.3963,2.363 C 2.39693,2.35788 2.40025,2.353 2.39643,2.3475 L 2.37048,2.3541 2.37675,2.34359 A 0.571,0.571 0 0 0 2.42,2.30539 L 2.42447,2.30166 c 0.01336,5.6e-4 0.0208,-0.00983 0.0297,-0.0168 0.01917,0.01949 0.02008,0.02407 0.0105,0.04671 L 2.47291,2.36351 A 0.011,0.011 0 0 1 2.45835,2.358 Z M 2.47123,1.81942 2.4607,1.81493 A 0.03545,0.03545 0 0 0 2.44018,1.8037 0.05724,0.05724 0 0 1 2.40352,1.74791 C 2.40402,1.74208 2.40606,1.7372 2.4124,1.73637 A 0.02232,0.02232 0 0 0 2.43235,1.7222 L 2.44129,1.71535 a 0.0212,0.0212 0 0 0 0.01522,-0.008 L 2.46759,1.70521 2.51305,1.70698 A 0.01835,0.01835 0 0 1 2.50132,1.72408 0.01627,0.01627 0 0 0 2.49268,1.74595 0.0471,0.0471 0 0 0 2.51814,1.74666 0.08679,0.08679 0 0 1 2.54765,1.74916 0.07194,0.07194 0 0 0 2.59412,1.74323 L 2.60632,1.73644 A 0.04355,0.04355 0 0 1 2.64421,1.72918 l 0.01184,0.00129 0.01,-0.00486 A 0.03028,0.03028 0 0 1 2.68695,1.7077 L 2.68295,1.68364 A 0.01537,0.01537 0 0 1 2.69216,1.6641 L 2.70663,1.65455 C 2.72801,1.6663 2.73136,1.6732 2.72512,1.69411 a 0.0488,0.0488 0 0 0 7.9e-4,0.033 0.27119,0.27119 0 0 1 0.00866,0.03734 L 2.72611,1.76766 C 2.71937,1.77095 2.71819,1.77645 2.72422,1.77887 2.74098,1.78561 2.74299,1.80218 2.74888,1.81553 A 0.02271,0.02271 0 0 1 2.73721,1.84269 L 2.71479,1.85543 2.71635,1.8497 C 2.7186,1.84106 2.71615,1.83552 2.70858,1.8357 A 0.13733,0.13733 0 0 0 2.67322,1.83935 0.09,0.09 0 0 0 2.63311,1.85591 L 2.62684,1.8557 C 2.62217,1.84329 2.63004,1.83378 2.63403,1.8237 A 0.18717,0.18717 0 0 0 2.64741,1.79363 0.01,0.01 0 0 0 2.63252,1.79113 0.50867,0.50867 0 0 1 2.57238,1.81668 L 2.561,1.82458 A 0.07465,0.07465 0 0 1 2.53107,1.8399 0.03641,0.03641 0 0 1 2.48443,1.81962 0.07741,0.07741 0 0 1 2.47123,1.81945 Z m 0.045,1.95174 A 0.04211,0.04211 0 0 1 2.49583,3.75504 0.07181,0.07181 0 0 0 2.47646,3.7326 L 2.48477,3.73 a 0.06427,0.06427 0 0 1 0.01967,0.0158 0.04325,0.04325 0 0 0 0.01268,0.01432 c 0.00421,0.00266 0.00394,0.00651 -8.9e-4,0.01107 z m 0.0497,0.02445 A 0.21022,0.21022 0 0 1 2.54462,3.79574 L 2.54421,3.79331 2.55359,3.78946 C 2.55277,3.77838 2.53547,3.77014 2.54741,3.75569 2.55614,3.76382 2.56793,3.76669 2.5741,3.77769 2.57978,3.78778 2.57735,3.79447 2.56593,3.79564 Z M 2.62232,2.51136 2.61347,2.52226 C 2.60664,2.51491 2.60283,2.50894 2.60864,2.50038 L 2.61741,2.48381 2.63603,2.50819 Z M 2.63876,2.25984 2.61662,2.2532 2.62279,2.24669 a 0.1065,0.1065 0 0 1 0.016,-2.6e-4 z M 2.66461,2.08484 2.65676,2.08357 A 0.0558,0.0558 0 0 1 2.61553,2.06716 0.0674,0.0674 0 0 1 2.58894,2.04078 L 2.5793,2.03602 A 0.02441,0.02441 0 0 1 2.55721,2.03331 L 2.54258,2.06438 2.55115,2.07025 a 0.042,0.042 0 0 1 0.0175,0.02356 0.02943,0.02943 0 0 0 0.01414,0.01851 L 2.59326,2.12147 A 0.07255,0.07255 0 0 0 2.62508,2.14489 0.04427,0.04427 0 0 1 2.6415,2.159 0.00965,0.00965 0 0 1 2.6435,2.17165 0.01188,0.01188 0 0 1 2.63006,2.1782 0.137,0.137 0 0 1 2.56286,2.14232 0.243,0.243 0 0 1 2.52204,2.0862 0.02724,0.02724 0 0 1 2.52016,2.05781 L 2.5187,2.043 C 2.50623,2.03006 2.5067,2.01236 2.50013,1.99733 A 0.01389,0.01389 0 0 1 2.50539,1.97812 L 2.51394,1.973 2.52164,1.96813 C 2.52464,1.96131 2.52032,1.95732 2.51822,1.95258 A 0.01837,0.01837 0 0 1 2.52714,1.92582 0.04546,0.04546 0 0 1 2.54425,1.92141 c 0.00989,-7e-4 0.01987,-1.9e-4 0.03037,-1.9e-4 L 2.58512,1.9046 A 0.01722,0.01722 0 0 1 2.60963,1.89836 c 0.01815,0.00995 0.03912,0.013 0.05665,0.02436 a 0.02046,0.02046 0 0 0 0.01508,0.00271 0.05751,0.05751 0 0 1 0.0371,0.00346 0.09825,0.09825 0 0 0 0.0312,0.00592 0.0306,0.0306 0 0 1 0.025,0.01047 A 0.00771,0.00771 0 0 1 2.77113,1.95812 0.04818,0.04818 0 0 1 2.75539,1.95919 L 2.688,1.95162 A 0.192,0.192 0 0 0 2.63846,1.9512 0.08191,0.08191 0 0 1 2.59508,1.9501 0.02712,0.02712 0 0 0 2.58324,1.94922 0.01647,0.01647 0 0 0 2.57024,1.96992 0.011,0.011 0 0 0 2.58073,1.97783 C 2.58535,1.97802 2.59,1.97704 2.59464,1.97704 l 0.01982,6.9e-4 a 0.01462,0.01462 0 0 1 0.01329,0.00753 0.03249,0.03249 0 0 0 0.03023,0.01606 c 0.0179,10e-4 0.03585,0.00132 0.05378,0.00131 a 0.09851,0.09851 0 0 1 0.05325,0.014 c 0.0012,0.00731 -0.00319,0.01092 -0.00929,0.013 L 2.7422,2.03313 2.73073,2.04002 C 2.72473,2.05035 2.71651,2.0501 2.70662,2.04824 a 0.0919,0.0919 0 0 0 -0.0489,0.00511 l 0.00713,0.0092 A 0.09238,0.09238 0 0 0 2.71351,2.071 0.051,0.051 0 0 1 2.74283,2.07351 l 0.01174,9.4e-4 C 2.76682,2.07299 2.77297,2.07939 2.77673,2.09082 L 2.76283,2.1059 A 0.07891,0.07891 0 0 0 2.72716,2.09663 C 2.7062,2.0937 2.68547,2.08886 2.66462,2.08488 Z M 2.70536,2.76171 2.70067,2.7493 2.7005,2.73676 c 0.01257,0.005 0.0119,0.01579 0.01414,0.02443 0.00131,0.00508 1.3e-4,0.01039 -0.00835,0.012 z M 2.7462,2.89804 A 0.07519,0.07519 0 0 1 2.73331,2.86915 0.04862,0.04862 0 0 0 2.726,2.85312 L 2.71238,2.833 2.71651,2.80769 2.722,2.80312 2.72679,2.80563 a 0.02873,0.02873 0 0 0 0.02438,0.02 0.23216,0.23216 0 0 1 0.01355,0.03124 0.20774,0.20774 0 0 1 0.00373,0.0328 l 0.0174,0.0052 -0.00221,0.01744 C 2.76246,2.91624 2.75623,2.91359 2.74622,2.89807 Z M 2.79,3.78515 2.78163,3.78415 A 0.17311,0.17311 0 0 1 2.76217,3.76235 0.018,0.018 0 0 1 2.76012,3.74942 0.03638,0.03638 0 0 1 2.77212,3.73177 l 0.00888,0.0247 0.01167,0.0203 z m 8e-5,-2.53455 A 0.02657,0.02657 0 0 0 2.77883,1.22521 0.06218,0.06218 0 0 1 2.76675,1.20088 0.00668,0.00668 0 0 1 2.77201,1.19178 l 0.00854,0.00333 0.00583,0.01028 0.01449,0.01622 0.009,10e-4 0.00419,-0.008 L 2.8105,1.19722 2.80839,1.18622 2.8297,1.16844 c -7.9e-4,0.021 0.00548,0.03963 -0.00547,0.0576 A 0.12764,0.12764 0 0 0 2.81601,1.24835 0.01637,0.01637 0 0 1 2.80173,1.26045 C 2.79474,1.26116 2.78917,1.25748 2.79008,1.2506 Z m 0.04,0.59009 C 2.82658,1.84725 2.81908,1.84594 2.81249,1.8494 A 0.02607,0.02607 0 0 1 2.80178,1.82017 0.13029,0.13029 0 0 0 2.8032,1.80066 L 2.8062,1.78871 A 0.01063,0.01063 0 0 1 2.8176,1.79927 0.15563,0.15563 0 0 0 2.83,1.83433 Z M 2.828,1.68044 2.82266,1.67544 2.82481,1.66855 A 0.04167,0.04167 0 0 1 2.86363,1.663 c 0.004,0.00232 0.00838,0.00585 0.00649,0.01082 L 2.86126,1.68 2.85153,1.68067 2.84367,1.68018 v 4.7e-4 A 0.1146,0.1146 0 0 1 2.828,1.68044 Z M 2.88417,1.84551 C 2.87251,1.83034 2.85928,1.81676 2.84693,1.80233 L 2.844,1.7972 A 0.00652,0.00652 0 0 1 2.84889,1.7881 L 2.85676,1.78751 C 2.87784,1.79 2.89896,1.79227 2.91993,1.79551 A 0.037,0.037 0 0 0 2.945,1.79293 l 0.00734,-0.003 C 2.9695,1.7853 2.97428,1.78782 2.98083,1.80474 L 2.98655,1.81962 A 0.03686,0.03686 0 0 1 2.98694,1.84492 0.03048,0.03048 0 0 0 2.98526,1.86403 0.02157,0.02157 0 0 1 2.977,1.89185 L 2.96967,1.89741 2.96003,1.88708 2.95497,1.89008 C 2.94051,1.90775 2.93897,1.90783 2.92378,1.89131 L 2.9169,1.88423 C 2.91054,1.86729 2.89443,1.85881 2.88422,1.84552 Z M 2.94928,2.69496 2.94687,2.68382 2.94846,2.676 2.95014,2.669 C 2.94254,2.64948 2.92056,2.64038 2.9172,2.61777 A 0.05591,0.05591 0 0 0 2.93,2.58006 0.07611,0.07611 0 0 1 2.93955,2.55215 0.31384,0.31384 0 0 1 2.95773,2.52627 L 2.96363,2.51382 C 2.96654,2.50719 2.96892,2.50016 2.97763,2.49749 A 0.19109,0.19109 0 0 1 2.9935,2.52196 0.0296,0.0296 0 0 0 3.02122,2.54175 c 0.00242,0.009 0.00536,0.01712 0.01556,0.01869 A 0.008,0.008 0 0 0 3.04643,2.55291 0.028,0.028 0 0 0 3.03929,2.53273 C 3.02994,2.52073 3.02029,2.50895 3.01174,2.49638 A 0.04332,0.04332 0 0 1 3.00869,2.44759 C 3.0165,2.43368 3.02269,2.41884 3.03069,2.40504 A 0.057,0.057 0 0 0 3.0383,2.38487 0.02912,0.02912 0 0 1 3.05467,2.36087 0.02224,0.02224 0 0 1 3.054,2.392 0.04139,0.04139 0 0 0 3.08314,2.40043 0.0212,0.0212 0 0 1 3.10231,2.40649 C 3.1045,2.41954 3.08262,2.42649 3.09576,2.4418 A 0.0402,0.0402 0 0 0 3.11853,2.42773 C 3.12982,2.41473 3.13875,2.41449 3.15132,2.42668 l 0.0045,0.00551 C 3.15366,2.43628 3.1496,2.44065 3.14944,2.44519 A 0.03412,0.03412 0 0 0 3.15483,2.4596 0.01136,0.01136 0 0 1 3.15302,2.47418 L 3.14582,2.481 a 0.21975,0.21975 0 0 0 -0.054,0.06031 0.15836,0.15836 0 0 1 -0.03769,0.04066 0.14543,0.14543 0 0 0 -0.03749,0.04329 0.0944,0.0944 0 0 1 -0.023,0.02871 0.1091,0.1091 0 0 0 -0.02195,0.03 L 2.96017,2.70115 Z M 2.98836,2.87011 C 2.98293,2.86029 2.97536,2.85169 2.96925,2.8422 L 2.96048,2.82454 2.95658,2.8134 C 2.95258,2.8077 2.94845,2.80158 2.95113,2.79503 2.95532,2.78479 2.95589,2.77274 2.9653,2.76484 A 0.03647,0.03647 0 0 1 2.98935,2.75232 c 0.0081,1.1e-4 0.01326,-0.0108 0.02195,-0.00735 0.00657,0.00261 0.0118,0.0087 0.01841,0.01111 a 0.02917,0.02917 0 0 1 0.01609,0.01333 0.03353,0.03353 0 0 0 0.01363,0.01086 0.02061,0.02061 0 0 1 0.012,0.01207 C 3.07572,2.80413 3.07713,2.8042 3.08898,2.80269 H 3.10042 L 3.11036,2.80888 3.10787,2.81427 3.09869,2.81627 3.09643,2.81933 a 0.04735,0.04735 0 0 1 -0.02,0.03312 C 3.06854,2.85851 3.06196,2.86624 3.05443,2.87274 l -0.022,0.01712 A 0.01757,0.01757 0 0 1 3.01168,2.89097 0.06222,0.06222 0 0 1 2.9884,2.87011 Z M 3.00982,2.96289 3.00241,2.95613 C 2.9978,2.9488 3.00446,2.94225 3.00483,2.93513 L 3.01261,2.92457 3.01836,2.92929 c 0.00962,0.00963 0.01828,0.00989 0.02667,1e-4 L 3.05512,2.91457 C 3.06267,2.90362 3.0699,2.89242 3.07803,2.88192 a 0.14322,0.14322 0 0 1 0.01551,-0.015 l 0.01259,0.003 a 0.0422,0.0422 0 0 0 0.01965,3.9e-4 C 3.1426,2.86251 3.16245,2.86259 3.1774,2.85015 l 0.00676,-0.00124 2.9e-4,0.0078 -0.00376,0.007 C 3.17617,2.8711 3.16978,2.87871 3.17845,2.88682 A 0.02805,0.02805 0 0 0 3.19231,2.89387 0.0523,0.0523 0 0 0 3.20815,2.89123 L 3.212,2.90496 3.22378,2.91364 A 0.246,0.246 0 0 1 3.21325,2.93723 L 3.20367,2.94381 3.17724,2.95292 A 0.02255,0.02255 0 0 0 3.16004,2.96798 0.01592,0.01592 0 0 1 3.14816,2.9792 L 3.1436,2.97132 A 0.02915,0.02915 0 0 0 3.12152,2.94155 0.15909,0.15909 0 0 0 3.08709,2.93265 0.02921,0.02921 0 0 0 3.05531,2.94816 0.05594,0.05594 0 0 0 3.00986,2.96289 Z M 3.13961,3.16237 3.12181,3.144 A 0.006,0.006 0 0 1 3.12665,3.13417 l 0.01711,0.004 C 3.15014,3.13999 3.1524,3.1447 3.1542,3.15103 3.15557,3.15582 3.16067,3.15955 3.16575,3.16577 A 0.02576,0.02576 0 0 1 3.13965,3.16237 Z M 3.2244,3.108 3.20959,3.13332 a 0.07219,0.07219 0 0 1 -0.014,0.002 L 3.18518,3.13125 A 0.01476,0.01476 0 0 0 3.17141,3.12525 L 3.1623,3.12267 A 0.06217,0.06217 0 0 0 3.13236,3.10848 C 3.12546,3.10754 3.12299,3.10148 3.1193,3.09695 A 0.02268,0.02268 0 0 0 3.10138,3.0862 C 3.08985,3.08581 3.08491,3.08011 3.08375,3.06897 3.08328,3.06443 3.08367,3.05979 3.08367,3.05389 A 0.02239,0.02239 0 0 1 3.06885,3.0408 0.05927,0.05927 0 0 0 3.05137,3.0222 0.0267,0.0267 0 0 1 3.04572,2.981 0.0478,0.0478 0 0 1 3.06662,2.96642 0.053,0.053 0 0 1 3.11054,2.96414 0.0492,0.0492 0 0 0 3.12768,2.96645 c 0.002,0.00984 -0.01141,0.01359 -0.00656,0.0228 L 3.13128,3.00969 3.12687,3.02211 3.12377,3.03622 C 3.1119,3.03959 3.10107,3.04433 3.09908,3.05988 L 3.11336,3.06473 C 3.1228,3.06709 3.12611,3.06561 3.13144,3.05716 L 3.13612,3.04837 A 0.011,0.011 0 0 1 3.15541,3.05069 0.01548,0.01548 0 0 1 3.14894,3.07141 L 3.13617,3.07707 a 0.0118,0.0118 0 0 0 -0.00705,0.013 0.00881,0.00881 0 0 0 0.01176,0.00724 L 3.14612,3.09447 A 0.10613,0.10613 0 0 1 3.17976,3.07125 0.02127,0.02127 0 0 0 3.19117,3.04943 C 3.19063,3.0315 3.19055,3.01352 3.18891,2.99569 3.18755,2.9809 3.18764,2.97883 3.20236,2.97469 A 0.02464,0.02464 0 0 0 3.22043,2.96069 0.0143,0.0143 0 0 1 3.235,2.952 0.09371,0.09371 0 0 0 3.25422,2.95394 c 0.00732,-0.00133 0.01075,0.00368 0.016,0.0058 a 0.15857,0.15857 0 0 0 0.03027,0.009 L 3.31123,2.96274 3.29056,2.92263 A 0.019,0.019 0 0 1 3.29631,2.8977 L 3.29772,2.89628 C 3.3143,2.87977 3.31472,2.87941 3.33799,2.88415 A 0.13133,0.13133 0 0 1 3.372,2.895 0.07274,0.07274 0 0 0 3.4012,2.898 L 3.41281,2.89527 C 3.41881,2.8919 3.41609,2.87827 3.42936,2.88168 A 0.07918,0.07918 0 0 1 3.42513,2.91442 L 3.43656,2.93491 C 3.43076,2.9381 3.42631,2.94254 3.42176,2.94265 a 0.05463,0.05463 0 0 0 -0.02524,0.011 C 3.38258,2.96133 3.36944,2.97045 3.35588,2.97881 A 0.04277,0.04277 0 0 1 3.31421,2.98639 l -0.00375,0.0133 a 0.02531,0.02531 0 0 1 -0.01792,0.02178 0.07164,0.07164 0 0 0 -0.037,0.029 0.14476,0.14476 0 0 0 -0.02751,0.05042 z M 3.45081,3.16342 A 0.00932,0.00932 0 0 1 3.43968,3.16982 L 3.42375,3.16438 A 0.04122,0.04122 0 0 1 3.38593,3.18026 L 3.382,3.181 C 3.36394,3.19152 3.34959,3.18406 3.33484,3.1711 A 0.05433,0.05433 0 0 1 3.362,3.16078 0.02269,0.02269 0 0 1 3.3872,3.16853 l 0.00964,0.005 0.00778,-0.00978 A 0.02474,0.02474 0 0 1 3.4221,3.15183 L 3.43473,3.14642 A 0.05047,0.05047 0 0 1 3.44825,3.145 L 3.45273,3.14819 Z M 3.56765,3.38851 C 3.55504,3.37218 3.55542,3.36413 3.56899,3.35197 A 0.03276,0.03276 0 0 1 3.56765,3.38848 Z M 3.61952,3.17651 3.618,3.18766 3.61326,3.19847 a 0.33469,0.33469 0 0 0 -0.006,0.04716 C 3.60709,3.25731 3.60426,3.26495 3.59316,3.2689 L 3.58841,3.27268 c 0,0.00449 3.8e-4,0.01034 -9e-5,0.01613 -7.3e-4,0.009 0.002,0.01874 -0.00683,0.02594 L 3.579,3.3241 3.5753,3.33527 C 3.5733,3.33888 3.56952,3.34175 3.56541,3.33914 L 3.5613,3.33121 3.56683,3.31686 A 0.0155,0.0155 0 0 0 3.57033,3.30031 0.13838,0.13838 0 0 1 3.56886,3.25325 0.02866,0.02866 0 0 0 3.56121,3.2324 0.09307,0.09307 0 0 0 3.52503,3.20313 0.04629,0.04629 0 0 1 3.526,3.17327 0.08148,0.08148 0 0 0 3.52463,3.1332 L 3.516,3.14046 3.50555,3.16171 C 3.49662,3.15834 3.49408,3.15531 3.49704,3.14971 3.5013,3.14166 3.50681,3.13427 3.5129,3.12489 L 3.50959,3.11827 3.50583,3.11106 3.49978,3.122 A 0.05642,0.05642 0 0 0 3.48587,3.1148 0.04975,0.04975 0 0 0 3.4722,3.11662 L 3.4642,3.11633 A 0.08771,0.08771 0 0 0 3.40405,3.13639 L 3.39312,3.14085 c -0.00621,0.00118 -0.0136,-3.4e-4 -0.01865,0.00252 -0.00655,0.00371 -0.01137,7e-5 -0.017,0 A 0.04531,0.04531 0 0 0 3.33217,3.14724 L 3.32108,3.15172 A 0.0365,0.0365 0 0 1 3.28016,3.14672 L 3.26546,3.15572 3.26179,3.1503 C 3.2557,3.1366 3.25471,3.13616 3.24165,3.14204 L 3.2363,3.14453 3.23256,3.14376 3.23448,3.12919 3.24048,3.11664 C 3.24615,3.10558 3.24663,3.1054 3.26054,3.10749 L 3.26445,3.10712 3.26622,3.10596 C 3.27013,3.09917 3.26334,3.09519 3.2616,3.08988 A 0.01823,0.01823 0 0 1 3.2792,3.06559 L 3.29041,3.06351 3.31322,3.0569 A 0.04318,0.04318 0 0 0 3.3314,3.04958 0.018,0.018 0 0 1 3.35779,3.05303 l 0.01085,0.01429 a 0.07815,0.07815 0 0 0 0.04483,0.02812 v 0.011 c 0.0133,0.00365 0.0138,0.0035 0.01712,-0.00563 L 3.43118,3.09688 C 3.4337,3.09026 3.43745,3.08763 3.44328,3.09146 c 0.01155,0.0076 0.02342,0.0023 0.035,0.00255 0.007,1.5e-4 0.01137,-0.0064 0.01409,-0.01271 A 0.008,0.008 0 0 0 3.48367,3.071 0.10278,0.10278 0 0 1 3.45,3.06886 0.0599,0.0599 0 0 1 3.43284,3.06375 0.04931,0.04931 0 0 0 3.40861,3.05682 c -0.01109,0 -0.02394,-0.01453 -0.02631,-0.0261 L 3.37753,3.00949 C 3.38144,3.00284 3.38891,3.00105 3.39364,2.99536 A 0.03379,0.03379 0 0 1 3.4232,2.9869 C 3.43493,2.98809 3.44376,2.98707 3.44967,2.9749 3.45196,2.97021 3.45892,2.9678 3.46309,2.96482 A 0.21931,0.21931 0 0 0 3.4892,2.96953 0.02562,0.02562 0 0 0 3.5062,2.96616 0.03558,0.03558 0 0 1 3.53415,2.95857 L 3.54139,2.95741 3.54592,2.94291 A 0.0782,0.0782 0 0 0 3.48834,2.94162 0.04,0.04 0 0 1 3.474,2.94153 C 3.47717,2.92917 3.48314,2.91853 3.47587,2.90614 L 3.461,2.91446 C 3.46152,2.89946 3.45265,2.88799 3.453,2.87163 3.46179,2.87524 3.47057,2.87615 3.47456,2.88101 3.48383,2.89228 3.4964,2.89153 3.50822,2.89357 a 0.03773,0.03773 0 0 1 0.02754,0.014 L 3.5429,2.91433 A 0.23011,0.23011 0 0 1 3.5866,2.94122 C 3.59169,2.94436 3.59409,2.95163 3.59832,2.95649 3.60387,2.96286 3.60014,2.96837 3.59856,2.97491 3.59369,2.99516 3.58032,3.01151 3.57408,3.03112 A 0.26166,0.26166 0 0 1 3.56075,3.06065 C 3.55357,3.06249 3.54856,3.06123 3.54864,3.05401 a 0.05569,0.05569 0 0 1 0.003,-0.01947 0.06944,0.06944 0 0 0 5.9e-4,-0.04321 L 3.54505,2.9798 3.53121,2.97416 a 0.27939,0.27939 0 0 0 0.002,0.037 l 0.002,0.01385 A 0.04267,0.04267 0 0 1 3.52749,3.06209 c 0.01276,0.003 0.02191,0.01472 0.03617,0.01281 a 0.05924,0.05924 0 0 0 0.0252,-0.04249 l 0.01014,0.00368 0.01423,0.014 a 0.01934,0.01934 0 0 1 0.006,0.01813 L 3.61777,3.08013 a 0.09438,0.09438 0 0 0 7.1e-4,0.04514 0.14417,0.14417 0 0 1 10e-4,0.03771 c 6e-5,0.00452 2.7e-4,0.00902 3e-5,0.01345 z M 3.73196,3.18213 C 3.72744,3.18561 3.72375,3.18885 3.71696,3.18362 L 3.724,3.17228 3.72765,3.15968 3.74995,3.17159 3.76055,3.16378 3.77125,3.16496 A 0.01561,0.01561 0 0 1 3.76563,3.19078 L 3.75139,3.19394 3.74752,3.18494 C 3.743,3.17719 3.73949,3.17625 3.73195,3.18205 Z M 3.73314,2.62865 C 3.73947,2.62231 3.74637,2.62342 3.75687,2.62301 L 3.74709,2.63363 3.74452,2.64463 3.741,2.64457 Z M 3.75786,3.07981 3.76248,3.06743 C 3.76576,3.0635 3.76948,3.06573 3.77236,3.0711 L 3.76124,3.08649 Z m -0.02021,0.609 C 3.74507,3.67956 3.74507,3.67956 3.76077,3.68564 3.75582,3.697 3.75582,3.697 3.73763,3.68878 Z m 0.00752,-0.07 C 3.7436,3.61369 3.7478,3.60996 3.75817,3.60702 l 0.0036,0.01761 C 3.75279,3.62667 3.74727,3.62564 3.74515,3.61875 Z M 3.76734,3.59135 3.76196,3.58372 3.76309,3.57441 3.77475,3.56696 3.78066,3.59168 Z M 3.78877,3.71974 A 0.01343,0.01343 0 0 1 3.77568,3.72714 L 3.77258,3.72494 3.7723,3.71935 3.77478,3.71635 3.79025,3.70528 Z m -0.0024,-0.042 C 3.78232,3.6804 3.77926,3.67674 3.77772,3.6729 L 3.77533,3.66385 C 3.78609,3.66063 3.79033,3.66171 3.79054,3.66807 Z M 3.75178,2.316 3.74935,2.32742 a 0.09872,0.09872 0 0 0 0.01386,0.04111 0.05251,0.05251 0 0 1 0.0035,0.04541 0.12769,0.12769 0 0 0 -0.00588,0.029 0.05579,0.05579 0 0 1 -0.00779,0.02564 C 3.7462,2.46903 3.74248,2.46601 3.74334,2.46058 A 0.06228,0.06228 0 0 0 3.73641,2.426 0.04521,0.04521 0 0 1 3.73435,2.40258 0.19657,0.19657 0 0 0 3.7365,2.3528 0.09239,0.09239 0 0 1 3.73783,2.337 L 3.73989,2.31019 3.72907,2.31784 a 0.08894,0.08894 0 0 0 -0.01367,0.0778 0.04009,0.04009 0 0 1 7.1e-4,0.0175 L 3.71133,2.42829 A 0.04017,0.04017 0 0 0 3.72096,2.48213 0.022,0.022 0 0 1 3.72875,2.50349 C 3.72775,2.50826 3.72136,2.51171 3.71802,2.50841 A 0.09974,0.09974 0 0 0 3.69044,2.4929 L 3.68019,2.4836 A 0.08957,0.08957 0 0 0 3.64782,2.45773 0.03625,0.03625 0 0 1 3.63343,2.44725 0.20414,0.20414 0 0 0 3.58877,2.41073 C 3.56577,2.39379 3.54177,2.3781 3.5182,2.36188 L 3.51663,2.3606 A 0.21145,0.21145 0 0 0 3.48871,2.33847 0.15241,0.15241 0 0 0 3.45685,2.32753 L 3.43948,2.3244 3.4157,2.322 A 0.03373,0.03373 0 0 1 3.39232,2.30831 C 3.38501,2.29831 3.37503,2.29962 3.36897,2.31057 L 3.365,2.32189 3.3583,2.33844 3.35171,2.33653 A 0.12,0.12 0 0 1 3.3345,2.29453 C 3.33234,2.27541 3.32471,2.26997 3.30512,2.27003 A 0.08026,0.08026 0 0 1 3.28552,2.26752 0.00934,0.00934 0 0 1 3.27877,2.255 L 3.28433,2.24232 a 0.06142,0.06142 0 0 0 0.01045,-0.02768 0.021,0.021 0 0 1 0.0311,-0.01685 0.39405,0.39405 0 0 0 0.052,0.0127 0.04,0.04 0 0 0 0.01776,-7.1e-4 C 3.41671,2.20661 3.41951,2.21116 3.42653,2.22943 a 0.06756,0.06756 0 0 0 0.01118,0.02269 c 0.00574,0.00646 0.005,0.0088 -0.00268,0.0179 a 0.00728,0.00728 0 0 0 2.3e-4,0.01057 L 3.44576,2.28372 3.45584,2.27428 A 0.08655,0.08655 0 0 1 3.46947,2.25762 C 3.47688,2.25092 3.47407,2.24118 3.47004,2.23346 A 0.27584,0.27584 0 0 0 3.45283,2.20661 0.04915,0.04915 0 0 0 3.423,2.18225 L 3.41652,2.17846 A 0.04924,0.04924 0 0 1 3.424,2.124 C 3.43166,2.11344 3.438,2.10192 3.44491,2.09081 c 0.00516,0.00676 3.8e-4,0.01388 7e-5,0.02024 0.00471,0.00741 0.01066,0.01194 0.01871,0.0098 a 0.02758,0.02758 0 0 1 0.02426,0.00584 l 0.01,0.00657 A 0.03679,0.03679 0 0 0 3.54448,2.12355 0.0758,0.0758 0 0 1 3.56657,2.10535 l 0.02265,0.01848 c 0.00489,0.02013 0.0096,0.0381 0.01343,0.05625 A 0.04458,0.04458 0 0 1 3.60154,2.19563 0.01487,0.01487 0 0 0 3.60969,2.21415 0.02293,0.02293 0 0 0 3.62327,2.18968 0.04384,0.04384 0 0 1 3.63171,2.15968 C 3.64694,2.13448 3.647,2.13468 3.67638,2.12932 L 3.71129,2.12169 A 0.01325,0.01325 0 0 1 3.72744,2.12981 0.02141,0.02141 0 0 1 3.71256,2.15768 0.102,0.102 0 0 1 3.69671,2.15782 l -8.4e-4,0.00666 c 10e-4,0.01668 5.9e-4,0.01831 -0.01569,0.02145 A 0.01735,0.01735 0 0 0 3.66358,2.20451 L 3.65981,2.21814 3.63881,2.21601 3.62891,2.23383 3.619,2.23333 3.60921,2.23322 A 0.09044,0.09044 0 0 0 3.5484,2.2939 L 3.54803,2.30181 A 0.00792,0.00792 0 0 0 3.5609,2.30827 0.05722,0.05722 0 0 0 3.58758,2.27717 0.01474,0.01474 0 0 1 3.61033,2.26654 l 0.007,0.00389 A 0.0213,0.0213 0 0 0 3.64324,2.27324 L 3.67413,2.28486 3.673,2.29629 A 0.014,0.014 0 0 0 3.67793,2.31066 0.03408,0.03408 0 0 1 3.68915,2.32671 L 3.69526,2.33035 3.702,2.32453 a 0.14467,0.14467 0 0 0 6.9e-4,-0.0318 0.02242,0.02242 0 0 1 0.01337,-0.026 L 3.73364,2.25726 C 3.73801,2.25463 3.74347,2.25262 3.74356,2.24477 a 0.30267,0.30267 0 0 1 -0.062,-0.017 L 3.68968,2.21765 C 3.70518,2.20874 3.72068,2.19973 3.73689,2.19223 A 0.05058,0.05058 0 0 1 3.75615,2.19185 L 3.76122,2.18204 3.76544,2.18352 a 0.12686,0.12686 0 0 1 0.00957,0.02155 l -0.003,0.01266 A 0.04824,0.04824 0 0 0 3.76317,2.2353 L 3.74969,2.26637 C 3.74661,2.27364 3.74306,2.28105 3.74938,2.28937 A 0.03873,0.03873 0 0 0 3.77084,2.28048 0.024,0.024 0 0 0 3.77884,2.25882 C 3.77873,2.25219 3.77714,2.24556 3.77726,2.23895 l 0.00414,-0.01 0.004,0.00375 c 0.00136,0.01762 0.01234,0.03233 0.015,0.04937 0.00208,0.0131 0.00254,0.02648 0.00333,0.03977 A 0.029,0.029 0 0 1 3.79085,2.34893 C 3.77642,2.33989 3.77029,2.3221 3.75178,2.316 Z M 3.80227,3.225 C 3.8017,3.2298 3.7971,3.23031 3.79185,3.22683 L 3.79357,3.21614 3.791,3.20487 A 0.01855,0.01855 0 0 1 3.80227,3.225 Z M 3.7978,2.99377 A 0.01892,0.01892 0 0 1 3.8209,2.99352 C 3.81373,3.00856 3.81154,3.00859 3.7978,2.99377 Z m 0.028,-0.14689 c -0.00728,0.00189 -0.01018,0 -0.01959,-0.013 l 0.00821,0.00241 0.0058,0.004 0.0136,-0.0087 C 3.83418,2.83965 3.833,2.845 3.82581,2.84688 Z M 3.84565,3.18116 C 3.85,3.16846 3.854,3.16635 3.865,3.171 A 0.02489,0.02489 0 0 1 3.84566,3.18116 Z"
       id="path5" />
    <path
       d="M 1.11293,1.565 A 0.05006,0.05006 0 0 1 1.14614,1.566 L 1.17131,1.57182 C 1.18582,1.57387 1.20007,1.57839 1.21425,1.58004 A 0.10988,0.10988 0 0 1 1.2585,1.6001 C 1.28083,1.61327 1.30478,1.62367 1.32808,1.63518 L 1.33893,1.63389 1.3384,1.62289 A 0.13769,0.13769 0 0 1 1.31926,1.59269 0.02807,0.02807 0 0 0 1.30838,1.58137 C 1.29403,1.57299 1.27919,1.56543 1.26453,1.55758 L 1.26089,1.55599 A 0.09206,0.09206 0 0 0 1.21689,1.53946 0.34133,0.34133 0 0 1 1.18315,1.52746 0.01445,0.01445 0 0 1 1.173,1.512 C 1.17421,1.49846 1.16618,1.49385 1.15492,1.48981 A 0.22523,0.22523 0 0 1 1.11536,1.47113 0.08808,0.08808 0 0 0 1.08556,1.4559 0.0182,0.0182 0 0 1 1.07676,1.42567 L 1.08489,1.42095 A 0.07687,0.07687 0 0 1 1.13254,1.43281 0.03215,0.03215 0 0 1 1.1437,1.44404 0.145,0.145 0 0 0 1.17184,1.47741 0.06133,0.06133 0 0 0 1.2081,1.497 0.04727,0.04727 0 0 1 1.23671,1.51357 l 0.00257,0.00307 a 0.02008,0.02008 0 0 0 0.019,0.009 A 0.02371,0.02371 0 0 0 1.27454,1.50696 0.02433,0.02433 0 0 0 1.27212,1.48568 0.03254,0.03254 0 0 1 1.27348,1.44661 L 1.281,1.43215 1.27518,1.42606 A 0.01234,0.01234 0 0 1 1.27125,1.41 L 1.28054,1.39245 1.29292,1.36757 1.2996,1.3509 A 0.15666,0.15666 0 0 0 1.30639,1.32825 0.079,0.079 0 0 1 1.32103,1.29365 0.01684,0.01684 0 0 1 1.33669,1.28679 c 0.00658,3.8e-4 0.0107,0.00391 0.00952,0.01006 -0.00272,0.01408 -9e-5,0.02985 -0.0121,0.04122 a 0.25478,0.25478 0 0 0 -0.00732,0.039 c -7.5e-4,0.01989 0.00111,0.03988 0.00186,0.05983 3.5e-4,0.00932 0,0.01873 0.00119,0.028 a 0.03133,0.03133 0 0 1 -0.01558,0.03215 0.06538,0.06538 0 0 0 -0.019,0.02273 0.0217,0.0217 0 0 0 0.00818,0.03376 l 0.009,0.00441 c 0.00723,0.00276 0.01137,0.00173 0.0148,-0.0055 A 0.06624,0.06624 0 0 0 1.3376,1.52684 0.02154,0.02154 0 0 1 1.3452,1.51369 0.04893,0.04893 0 0 0 1.36191,1.473 0.45268,0.45268 0 0 1 1.37628,1.37046 l 0.0039,-0.0091 a 0.01463,0.01463 0 0 1 0.017,-0.00721 0.01532,0.01532 0 0 1 0.011,0.017 L 1.40307,1.39858 A 0.05947,0.05947 0 0 0 1.40115,1.41436 0.41764,0.41764 0 0 1 1.3975,1.48382 0.38665,0.38665 0 0 0 1.39906,1.52442 C 1.42142,1.5301 1.41942,1.55191 1.42736,1.56642 1.43446,1.56772 1.43771,1.56384 1.43773,1.559 A 0.10162,0.10162 0 0 0 1.43673,1.52135 L 1.43556,1.50969 C 1.4399,1.49514 1.44487,1.48077 1.44999,1.46647 l 0.00671,-0.012 a 0.03544,0.03544 0 0 0 0.01466,-0.02673 0.01152,0.01152 0 0 1 0.015,-0.00927 0.01375,0.01375 0 0 1 0.00521,0.019 L 1.48136,1.45 a 0.19264,0.19264 0 0 1 0.00682,0.02467 0.11383,0.11383 0 0 1 4.5e-4,0.026 0.2558,0.2558 0 0 1 -0.00514,0.03542 0.11058,0.11058 0 0 0 -8.7e-4,0.03766 0.16405,0.16405 0 0 1 8.4e-4,0.04175 0.14529,0.14529 0 0 0 0.00358,0.05731 0.03658,0.03658 0 0 1 -0.002,0.02491 0.07,0.07 0 0 0 -0.00188,0.04315 L 1.48671,1.7443 C 1.49804,1.74108 1.5098,1.7371 1.52186,1.73452 a 0.111,0.111 0 0 1 0.02555,-0.00208 0.00871,0.00871 0 0 1 0.0089,0.009 L 1.55065,1.75109 A 0.09871,0.09871 0 0 1 1.52242,1.75977 0.08927,0.08927 0 0 0 1.49352,1.76658 0.15018,0.15018 0 0 1 1.45561,1.77824 0.0715,0.0715 0 0 0 1.41367,1.80668 L 1.399,1.82289 1.3904,1.82489 A 0.00691,0.00691 0 0 1 1.38867,1.81444 L 1.40544,1.7901 1.42275,1.76834 A 0.03641,0.03641 0 0 0 1.42619,1.73409 0.00794,0.00794 0 0 0 1.412,1.73127 0.10614,0.10614 0 0 1 1.40117,1.74527 L 1.38635,1.75149 1.38178,1.769 A 0.01431,0.01431 0 0 1 1.36998,1.77861 0.03683,0.03683 0 0 1 1.34049,1.76491 0.01953,0.01953 0 0 1 1.34943,1.741 L 1.359,1.73839 A 0.01246,0.01246 0 0 0 1.36586,1.71917 0.03815,0.03815 0 0 0 1.34815,1.70356 L 1.32283,1.69161 1.31283,1.68551 A 0.24857,0.24857 0 0 1 1.29283,1.65372 0.02671,0.02671 0 0 0 1.28183,1.64031 0.12884,0.12884 0 0 0 1.22222,1.61909 L 1.2143,1.61782 A 0.17339,0.17339 0 0 0 1.16441,1.60536 C 1.14771,1.60099 1.1305,1.59855 1.11347,1.59554 1.10204,1.59354 1.09996,1.58981 1.10506,1.57919 L 1.108,1.574 Z"
       id="path7" />
    <path
       d="m 1.67947,2.21275 0.01551,0.00246 c 0.01268,0.0035 0.01564,0.0116 0.0091,0.02375 l -0.00276,0.007 0.01118,0.00623 a 0.04078,0.04078 0 0 1 0.03114,0.025 0.07066,0.07066 0 0 0 0.01493,0.01851 0.01314,0.01314 0 0 0 0.01667,0.00107 L 1.7963,2.28547 1.83522,2.26509 1.84066,2.26256 c 0.00507,-0.0019 0.01032,-0.0038 0.01494,7.2e-4 a 0.01538,0.01538 0 0 1 6.1e-4,0.01855 L 1.83741,2.305 1.84094,2.31749 1.83029,2.33 A 0.04686,0.04686 0 0 0 1.81635,2.379 C 1.82054,2.39164 1.8129,2.39848 1.80022,2.39535 L 1.78522,2.39012 A 0.18044,0.18044 0 0 1 1.78348,2.36792 0.03646,0.03646 0 0 1 1.798,2.33855 L 1.80023,2.3299 A 0.00686,0.00686 0 0 0 1.79,2.32732 L 1.77834,2.33812 C 1.76334,2.3364 1.75634,2.33246 1.75534,2.31752 A 0.03451,0.03451 0 0 0 1.73554,2.2899 l -0.0287,-0.018 a 0.0435,0.0435 0 0 0 -0.06018,0.01011 0.10309,0.10309 0 0 0 -0.025,0.03774 0.01457,0.01457 0 0 1 -0.012,0.00936 C 1.6035,2.33068 1.59837,2.32787 1.59817,2.32167 A 0.18214,0.18214 0 0 0 1.59066,2.2725 L 1.59466,2.26 A 0.07175,0.07175 0 0 1 1.63416,2.23109 L 1.65375,2.22496 c 0,-0.00971 5.4e-4,-0.01892 -1.3e-4,-0.02805 A 0.03931,0.03931 0 0 1 1.66519,2.1591 L 1.66188,2.14817 C 1.65702,2.13351 1.65819,2.12384 1.6708,2.11703 a 0.28814,0.28814 0 0 1 0.0504,-0.02742 0.02827,0.02827 0 0 1 0.03261,0.00824 0.07056,0.07056 0 0 0 0.02421,0.017 c 0.01608,0.00793 0.0316,0.017 0.0472,0.02587 0.0046,0.00261 0.01051,0.00517 0.01269,0.00938 0.00865,0.01663 0.02683,0.01892 0.04041,0.02791 a 0.0236,0.0236 0 0 0 0.01727,-4.5e-4 0.04681,0.04681 0 0 1 0.02552,-7.9e-4 l 0.02169,0.003 A 0.05936,0.05936 0 0 1 1.976,2.19197 L 1.97873,2.20066 1.97312,2.20542 A 0.03432,0.03432 0 0 1 1.9478,2.20355 0.0878,0.0878 0 0 0 1.90314,2.19514 0.13915,0.13915 0 0 1 1.86822,2.19173 l -0.01148,10e-5 A 0.12589,0.12589 0 0 1 1.83125,2.1891 0.02265,0.02265 0 0 1 1.81778,2.1785 0.0817,0.0817 0 0 0 1.79417,2.1519 L 1.78517,2.14408 1.76683,2.13253 1.74713,2.12347 a 0.01152,0.01152 0 0 0 -0.01467,3.7e-4 l -0.027,0.02375 A 0.05565,0.05565 0 0 0 1.69,2.17047 0.13129,0.13129 0 0 0 1.67947,2.21275 Z"
       id="path9" />
    <path
       d="M 1.59,1.97291 1.56672,1.99833 C 1.56109,1.99792 1.55647,1.99733 1.55185,1.99733 L 1.5381,1.99861 A 0.0448,0.0448 0 0 1 1.4966,2.004 L 1.48898,2.0057 1.42992,2.02957 1.42147,2.03489 a 0.03486,0.03486 0 0 0 -0.01513,0.05 L 1.39757,2.08754 C 1.3852,2.08407 1.37132,2.08272 1.36709,2.06654 L 1.35794,2.05704 C 1.35269,2.05416 1.34552,2.05295 1.34617,2.04544 A 0.02355,0.02355 0 0 1 1.3569,2.02504 L 1.37845,2.01458 A 0.07992,0.07992 0 0 0 1.39886,2.00258 0.082,0.082 0 0 1 1.42324,1.98967 C 1.43181,1.98703 1.44134,1.98733 1.4427,2.00047 L 1.4611,1.99847 1.46294,1.994 A 0.02789,0.02789 0 0 1 1.48,1.96352 0.251,0.251 0 0 1 1.54741,1.93929 L 1.55527,1.93791 C 1.56986,1.93355 1.58482,1.93023 1.59127,1.91323 1.59327,1.90808 1.59918,1.90444 1.60396,1.89941 L 1.6035,1.89233 A 0.0261,0.0261 0 0 1 1.61755,1.86046 L 1.63072,1.8514 A 0.03172,0.03172 0 0 1 1.65042,1.84346 0.09042,0.09042 0 0 0 1.67121,1.83681 c 0.01183,-0.004 0.017,-5.1e-4 0.01819,0.01235 0.00124,0.01326 0.00191,0.01388 0.01542,0.01532 l 0.0198,0.00247 A 0.02849,0.02849 0 0 1 1.74641,1.89618 L 1.74532,1.89994 1.7378,1.90514 1.73169,1.90136 C 1.72689,1.87936 1.70818,1.88029 1.69242,1.87876 A 0.03843,0.03843 0 0 0 1.65932,1.88938 0.04925,0.04925 0 0 1 1.63792,1.89951 0.01933,0.01933 0 0 0 1.62336,1.91424 L 1.615,1.94576 1.60829,1.94914 C 1.59583,1.95487 1.59414,1.96459 1.60455,1.97336 l 0.02383,0.0181 a 0.05476,0.05476 0 0 1 0.02021,0.02548 c -0.00263,0.00627 -0.007,0.00543 -0.0102,0.003 L 1.62219,2.00518 Z"
       id="path11" />
    <path
       d="m 1.92893,2.59916 a 0.04889,0.04889 0 0 1 0.01918,-0.035 L 1.9494,2.56266 C 1.95465,2.54288 1.97216,2.53748 1.98806,2.53189 A 0.21155,0.21155 0 0 0 2.02022,2.517 C 2.03648,2.508 2.04111,2.50964 2.05298,2.52536 L 2.0639,2.53298 2.08713,2.54808 2.0927,2.55614 2.0917,2.5653 2.08127,2.56912 A 0.19608,0.19608 0 0 1 2.04804,2.55595 0.02529,0.02529 0 0 0 2.01524,2.5568 L 2.00175,2.56519 1.98893,2.569 C 1.98362,2.56921 1.97768,2.56733 1.97413,2.57234 A 0.0382,0.0382 0 0 0 1.96536,2.58959 0.05309,0.05309 0 0 1 1.9507,2.61851 l -0.01231,-0.011 -0.00886,0.004 A 0.02108,0.02108 0 0 1 1.89922,2.60766 0.01707,0.01707 0 0 0 1.88665,2.603 0.06144,0.06144 0 0 1 1.8656,2.598 0.07587,0.07587 0 0 0 1.81095,2.59205 L 1.82386,2.60047 A 0.01868,0.01868 0 0 1 1.83252,2.61713 C 1.83198,2.62713 1.83493,2.63079 1.84344,2.63 1.85313,2.62909 1.85944,2.63508 1.86663,2.63826 1.87648,2.63117 1.86169,2.62671 1.86704,2.61917 a 0.06737,0.06737 0 0 1 0.0364,0.02121 C 1.89632,2.65738 1.88887,2.66203 1.87634,2.65504 A 0.15111,0.15111 0 0 0 1.84082,2.6426 0.18065,0.18065 0 0 1 1.8194,2.6338 0.028,0.028 0 0 1 1.79284,2.64036 0.02691,0.02691 0 0 0 1.76813,2.64499 L 1.76103,2.64764 A 0.01626,0.01626 0 0 0 1.74555,2.65481 0.03446,0.03446 0 0 0 1.73593,2.68034 0.052,0.052 0 0 1 1.73045,2.7207 L 1.72907,2.73034 1.72734,2.77207 1.72179,2.77888 1.71343,2.775 A 0.0281,0.0281 0 0 1 1.70809,2.75232 0.02,0.02 0 0 0 1.70129,2.73271 0.01557,0.01557 0 0 1 1.69579,2.71835 0.053,0.053 0 0 0 1.68707,2.68627 0.02311,0.02311 0 0 1 1.70892,2.65072 c 0.0066,0 0.01346,0.0029 0.01726,-0.00532 C 1.72956,2.63811 1.72249,2.63479 1.72018,2.62966 L 1.71904,2.62566 A 0.01806,0.01806 0 0 1 1.73224,2.60983 0.04839,0.04839 0 0 0 1.75643,2.593 0.02915,0.02915 0 0 1 1.779,2.58228 C 1.78892,2.58167 1.79868,2.57896 1.80858,2.57772 l 0.01965,-9.5e-4 a 0.04163,0.04163 0 0 0 0.01541,-0.00166 0.0205,0.0205 0 0 1 0.02258,0.00259 0.09772,0.09772 0 0 0 0.042,0.01611 z"
       id="path13" />
    <path
       d="M 1.95,2.49409 A 0.01382,0.01382 0 0 1 1.92739,2.49641 0.18456,0.18456 0 0 1 1.91166,2.478 0.04038,0.04038 0 0 1 1.88514,2.46167 0.21481,0.21481 0 0 0 1.86684,2.47852 0.03339,0.03339 0 0 1 1.83438,2.48946 C 1.80822,2.4856 1.8053,2.48515 1.79696,2.51414 l -0.003,0.00738 A 0.01608,0.01608 0 0 1 1.77872,2.52918 0.01013,0.01013 0 0 1 1.76888,2.51845 0.07453,0.07453 0 0 1 1.77121,2.48734 0.06064,0.06064 0 0 0 1.77645,2.46539 0.16279,0.16279 0 0 1 1.87473,2.432 L 1.88711,2.42735 A 0.01885,0.01885 0 0 1 1.91674,2.43393 0.26628,0.26628 0 0 1 1.92662,2.46716 C 1.94423,2.467 1.94109,2.48552 1.95,2.49409 Z M 1.8252,2.45965 1.83838,2.4717 1.84691,2.47032 1.84608,2.46 A 0.01675,0.01675 0 0 0 1.82516,2.45965 Z"
       id="path15" />
    <path
       d="M 1.81386,2.01369 1.8,2.02151 1.79112,2.006 1.7856,2.00666 A 0.066,0.066 0 0 1 1.76199,2.01588 C 1.74836,2.01925 1.73304,2.02172 1.7261,2.0375 A 0.01181,0.01181 0 0 1 1.71241,2.04342 L 1.70065,2.0412 A 0.01593,0.01593 0 0 1 1.69115,2.01387 0.081,0.081 0 0 1 1.71715,1.98953 0.10631,0.10631 0 0 0 1.73526,1.97731 0.043,0.043 0 0 1 1.76,1.96554 L 1.77093,1.96117 A 0.07707,0.07707 0 0 1 1.81784,1.95746 l 0.00605,0.004 3.7e-4,0.00464 c -0.007,0.01679 -0.007,0.01672 0.00582,0.03008 L 1.8387,2.007 1.83852,2.01615 1.83006,2.01939 Z"
       id="path17" />
    <path
       d="m 1.943,2.06983 c 0.01611,9e-4 0.02463,-0.01087 0.03579,-0.01471 0.01286,0.01706 0.0131,0.02226 0.00192,0.036 C 1.97654,2.09623 1.97102,2.10033 1.97007,2.10754 L 1.96841,2.111 C 1.95356,2.11341 1.94825,2.1325 1.9316,2.13183 1.92276,2.13148 1.91953,2.13783 1.91606,2.14483 1.90793,2.16136 1.89684,2.16183 1.88644,2.14664 A 0.02187,0.02187 0 0 1 1.89084,2.11331 L 1.913,2.09553 1.91183,2.08411 A 0.03313,0.03313 0 0 1 1.9192,2.0506 0.23353,0.23353 0 0 1 1.94112,2.02751 l 0.01222,3.8e-4 A 0.0647,0.0647 0 0 0 1.94011,2.06037 Z"
       id="path19" />
    <path
       d="M 1.25149,2.08065 C 1.25256,2.05344 1.25322,2.0262 1.25489,1.99903 a 0.06868,0.06868 0 0 1 0.01043,-0.038 0.02517,0.02517 0 0 0 0.00363,-0.021 L 1.26748,1.92823 A 0.0612,0.0612 0 0 1 1.27465,1.9039 0.07729,0.07729 0 0 1 1.29665,1.88756 C 1.29996,1.88547 1.30493,1.88922 1.30524,1.89325 v 0.004 A 0.49379,0.49379 0 0 0 1.2969,1.96625 0.0511,0.0511 0 0 1 1.29119,1.98306 0.1078,0.1078 0 0 0 1.28347,2.01367 0.27319,0.27319 0 0 1 1.27547,2.07459 0.07891,0.07891 0 0 0 1.27367,2.09436 L 1.27134,2.10597 A 0.00759,0.00759 0 0 1 1.25948,2.1082 0.03,0.03 0 0 1 1.25149,2.08065 Z"
       id="path21" />
    <path
       d="m 1.39767,2.249 c 0.008,-5e-4 0.0159,0.0018 0.02364,-0.00471 A 0.0426,0.0426 0 0 1 1.43789,2.23817 c 0.00778,-0.002 0.01073,-3e-4 0.01387,0.007 L 1.45899,2.26252 A 0.03654,0.03654 0 0 1 1.42756,2.26752 0.06061,0.06061 0 0 0 1.38681,2.27171 C 1.37739,2.27565 1.36461,2.27732 1.36733,2.29183 A 0.01886,0.01886 0 0 1 1.34351,2.28817 0.03842,0.03842 0 0 1 1.34334,2.22981 0.0502,0.0502 0 0 1 1.3789,2.21364 c 0.01,0 0.01992,-0.00128 0.02987,-0.00115 L 1.41649,2.21725 1.41422,2.22792 1.4023,2.23847 1.39578,2.245 Z"
       id="path23" />
    <path
       d="M 1.61363,2.03219 1.60547,2.04877 c 0.00424,0.00972 0.014,0.00461 0.02089,0.01025 L 1.62005,2.06467 1.60834,2.06697 a 0.09856,0.09856 0 0 0 -0.041,0.01373 0.091,0.091 0 0 1 -0.024,0.00913 L 1.53062,2.09517 A 0.00939,0.00939 0 0 0 1.52793,2.10893 L 1.53241,2.11527 1.52985,2.12582 A 0.03926,0.03926 0 0 1 1.51372,2.13282 0.01713,0.01713 0 0 1 1.49418,2.12633 0.02034,0.02034 0 0 1 1.49453,2.1036 Q 1.51028,2.08071 1.5273,2.05871 A 0.06456,0.06456 0 0 1 1.55788,2.03734 0.0534,0.0534 0 0 0 1.574,2.02962 C 1.58742,2.01867 1.59947,2.02228 1.61363,2.03219 Z"
       id="path25" />
    <path
       d="m 1.471,2.22577 a 0.01632,0.01632 0 0 1 -0.01863,-0.013 0.04039,0.04039 0 0 1 0.00471,-0.038 L 1.478,2.14809 1.48755,2.14153 a 0.06488,0.06488 0 0 1 0.04152,0.00922 c 0.0044,0.00352 0.00774,0.00671 0.01364,0.00614 L 1.54816,2.15864 1.55256,2.1669 1.54781,2.17463 1.51739,2.18356 C 1.50806,2.1859 1.50574,2.1872 1.50574,2.19665 A 0.08686,0.08686 0 0 1 1.49963,2.22775 L 1.49316,2.23375 1.4846,2.22732 A 0.15569,0.15569 0 0 1 1.48425,2.19962 L 1.48814,2.18109 A 0.01557,0.01557 0 0 0 1.47349,2.1963 c -5.3e-4,0.00527 3.6e-4,0.01067 0,0.016 z"
       id="path27" />
    <path
       d="m 1.46124,1.8863 0.01357,0.00233 a 0.01337,0.01337 0 0 1 0.0077,0.02283 C 1.47091,1.92315 1.45823,1.93379 1.44571,1.94453 A 0.02177,0.02177 0 0 1 1.42511,1.9489 0.04357,0.04357 0 0 0 1.41142,1.94719 C 1.39294,1.94854 1.38428,1.9355 1.37557,1.92292 a 0.00862,0.00862 0 0 1 0.003,-0.01233 0.07118,0.07118 0 0 1 0.01918,-0.0099 C 1.40859,1.89782 1.41998,1.89707 1.43104,1.89493 L 1.44775,1.89 Z"
       id="path29" />
    <path
       d="m 2.09063,2.36616 a 0.04493,0.04493 0 0 0 0.01969,0.0425 l 0.01038,0.012 0.00174,0.007 L 2.1108,2.43307 A 0.1103,0.1103 0 0 1 2.0878,2.42754 L 2.0817,2.42254 C 2.07305,2.41636 2.07099,2.41643 2.06256,2.4227 2.05031,2.43182 2.04956,2.43179 2.03786,2.42154 2.03086,2.4154 2.02907,2.41516 2.02065,2.42101 2.01632,2.42401 2.01285,2.42843 2.00665,2.42638 A 0.01243,0.01243 0 0 1 2.00022,2.40483 0.03577,0.03577 0 0 1 2.01251,2.39494 c 0.02427,-0.01035 0.04881,-0.02007 0.07327,-0.03 z"
       id="path31" />
    <path
       d="M 1.5884,1.81039 1.55872,1.82514 A 0.05186,0.05186 0 0 1 1.51986,1.82831 0.08163,0.08163 0 0 0 1.48107,1.83169 0.01632,0.01632 0 0 0 1.46907,1.84396 L 1.46552,1.85742 C 1.46426,1.86158 1.46123,1.86525 1.45698,1.86369 L 1.44975,1.85547 A 0.03094,0.03094 0 0 1 1.45789,1.82791 0.14477,0.14477 0 0 1 1.51962,1.78958 L 1.52937,1.788 1.5632,1.78711 A 0.02808,0.02808 0 0 1 1.58462,1.79592 0.012,0.012 0 0 1 1.5884,1.81039 Z"
       id="path33" />
    <path
       d="M 1.45417,2.13056 A 0.03824,0.03824 0 0 1 1.4256,2.132 L 1.4146,2.12747 C 1.39223,2.12202 1.38097,2.1233 1.37092,2.14213 A 0.06751,0.06751 0 0 0 1.35958,2.18279 C 1.36083,2.19469 1.35165,2.20053 1.33975,2.19726 1.32351,2.1928 1.31768,2.18271 1.32389,2.16735 a 0.134,0.134 0 0 1 0.015,-0.028 0.07218,0.07218 0 0 1 0.07165,-0.02913 C 1.42307,2.11844 1.44,2.11726 1.45417,2.13056 Z"
       id="path35" />
    <path
       d="M 1.56776,2.34745 C 1.55923,2.3497 1.55463,2.34424 1.54976,2.34014 L 1.5152,2.31046 A 0.04451,0.04451 0 0 0 1.47773,2.30111 0.0249,0.0249 0 0 0 1.45744,2.31829 l -0.01,0.03229 -0.00323,0.01134 A 0.0142,0.0142 0 0 1 1.42955,2.37009 C 1.42296,2.36842 1.42281,2.36261 1.42226,2.35736 a 0.056,0.056 0 0 1 0.00692,-0.03273 0.08115,0.08115 0 0 1 0.04573,-0.03918 0.04334,0.04334 0 0 1 0.025,0.00193 0.09757,0.09757 0 0 1 0.02848,0.014 0.17013,0.17013 0 0 1 0.03722,0.03174 0.01257,0.01257 0 0 1 0.00215,0.01433 z"
       id="path37" />
    <path
       d="m 1.15924,1.64957 a 0.04163,0.04163 0 0 1 0.02929,0.01109 0.03109,0.03109 0 0 0 0.023,0.01 l 0.011,0.00382 0.02973,0.016 c 0.00438,0.00231 0.0081,0.005 0.00732,0.01055 A 0.011,0.011 0 0 1 1.24729,1.70903 0.16518,0.16518 0 0 1 1.22034,1.70193 0.102,0.102 0 0 0 1.1914,1.69551 0.05569,0.05569 0 0 1 1.1549,1.68151 C 1.15075,1.67751 1.14409,1.67609 1.13976,1.67218 L 1.13407,1.66046 C 1.13364,1.65502 1.13854,1.65286 1.14346,1.65201 Z"
       id="path39" />
    <path
       d="M 1.97024,2.37578 1.958,2.3816 A 0.02173,0.02173 0 0 1 1.9385,2.37331 0.10253,0.10253 0 0 0 1.91531,2.35164 L 1.89982,2.33942 A 0.01978,0.01978 0 0 0 1.876,2.33515 L 1.87027,2.33676 A 0.00987,0.00987 0 0 1 1.85887,2.32821 L 1.85709,2.31451 1.84942,2.30612 A 0.05741,0.05741 0 0 1 1.87307,2.29356 l 0.00917,0.00235 c 0.0112,0.009 0.02621,0.01319 0.03338,0.02749 a 0.02943,0.02943 0 0 0 0.0118,0.01055 0.062,0.062 0 0 1 0.0221,0.02235 0.11757,0.11757 0 0 0 0.02072,0.01948 z"
       id="path41" />
    <path
       d="M 3.37453,1.622 3.36872,1.62844 3.36112,1.62388 C 3.35541,1.59454 3.33187,1.5774 3.31512,1.55567 L 3.30612,1.54506 A 0.01715,0.01715 0 0 1 3.31062,1.52055 C 3.32676,1.50755 3.33329,1.50921 3.34168,1.5281 L 3.35183,1.54968 A 0.10447,0.10447 0 0 1 3.3676,1.59836 l 0.004,0.01314 z"
       id="path43" />
    <path
       d="m 1.36517,2.40976 -0.019,-0.01733 c 0.003,-0.01376 0.0055,-0.02722 0.009,-0.04042 A 0.063,0.063 0 0 1 1.37924,2.32118 c 0.01719,0.00215 0.02,0.01705 0.0248,0.02844 A 0.02519,0.02519 0 0 1 1.39749,2.37543 l -0.00527,0.006 z"
       id="path45" />
    <path
       d="M 1.872,2.053 1.85948,2.04616 A 0.02109,0.02109 0 0 1 1.85441,2.03373 0.07454,0.07454 0 0 1 1.90398,1.95373 0.01888,0.01888 0 0 1 1.92873,1.97318 0.0185,0.0185 0 0 1 1.9101,1.99232 0.0307,0.0307 0 0 0 1.87586,2.02084 C 1.87388,2.03027 1.87345,2.04 1.872,2.053 Z"
       id="path47" />
    <path
       d="M 1.4841,2.11627 A 0.02324,0.02324 0 0 1 1.4586,2.11615 C 1.44812,2.10915 1.43847,2.10096 1.42869,2.093 l -0.001,-0.00533 0.00585,-0.00411 0.0112,0.00319 0.03658,0.024 z"
       id="path49" />
    <path
       d="M 1.99561,2.51562 A 0.03912,0.03912 0 0 1 1.98989,2.48191 0.00953,0.00953 0 0 1 2.00195,2.4747 C 2.00939,2.47615 2.01625,2.48296 2.01347,2.4878 2.00822,2.49693 2.00686,2.50886 1.99561,2.51562 Z"
       id="path51" />
    <path
       d="M 1.26843,2.17007 1.2603,2.17992 A 0.02932,0.02932 0 0 1 1.2473,2.18101 L 1.24489,2.17811 a 0.01474,0.01474 0 0 1 0.0072,-0.01486 0.00958,0.00958 0 0 1 0.01265,8e-4 z"
       id="path53" />
    <path
       d="m 1.86762,2.20653 -0.015,0.02595 C 1.84319,2.22668 1.84138,2.22316 1.84431,2.21748 1.84748,2.21143 1.85255,2.20864 1.86762,2.20653 Z"
       id="path55" />
    <path
       d="M 2.13272,2.27809 A 0.0127,0.0127 0 0 1 2.12008,2.267 L 2.12329,2.26289 a 0.01146,0.01146 0 0 1 0.01265,0.01169 z"
       id="path57" />
    <path
       d="M 3.33919,1.87251 A 0.01061,0.01061 0 0 1 3.33391,1.88718 0.1822,0.1822 0 0 1 3.3083,1.89772 0.0176,0.0176 0 0 0 3.2953,1.9089 0.06268,0.06268 0 0 1 3.23964,1.95037 l -0.004,4.1e-4 C 3.22817,1.95249 3.22556,1.95743 3.22918,1.96392 l 0.00816,0.0113 A 0.0549,0.0549 0 0 1 3.24766,2.01277 0.00812,0.00812 0 0 1 3.23506,2.02028 C 3.22387,2.01328 3.21322,2.00528 3.20272,1.9972 L 3.19805,1.98863 A 0.05982,0.05982 0 0 1 3.22753,1.91908 L 3.26021,1.90424 A 0.07111,0.07111 0 0 0 3.29144,1.88411 C 3.29544,1.87865 3.30517,1.87689 3.31266,1.87462 A 0.04674,0.04674 0 0 1 3.33919,1.87251 Z"
       id="path59" />
    <path
       d="M 3.09123,2.1836 C 3.10949,2.18931 3.11292,2.1956 3.10594,2.2094 3.10153,2.21814 3.09934,2.22829 3.0902,2.23432 L 3.0855,2.24282 3.0734,2.26341 3.06514,2.279 C 3.05921,2.29443 3.05977,2.29407 3.07371,2.30457 A 0.09361,0.09361 0 0 1 3.09132,2.32323 0.00735,0.00735 0 0 1 3.08543,2.33586 0.05379,0.05379 0 0 1 3.03893,2.31048 0.041,0.041 0 0 1 3.03924,2.26387 0.12442,0.12442 0 0 1 3.06624,2.22733 0.10139,0.10139 0 0 0 3.08355,2.201 Z"
       id="path61" />
    <path
       d="m 3.3007,2.024 0.0022,0.01515 0.00321,0.0316 A 0.03,0.03 0 0 1 3.30428,2.08599 0.01318,0.01318 0 0 0 3.30786,2.10361 L 3.31962,2.11704 A 0.0101,0.0101 0 0 1 3.3168,2.13118 L 3.30614,2.13067 3.286,2.10632 3.27655,2.089 A 0.00948,0.00948 0 0 1 3.27947,2.0765 C 3.28609,2.0719 3.28556,2.0658 3.28462,2.05875 a 0.09087,0.09087 0 0 1 2e-4,-0.02183 C 3.28564,2.02949 3.29056,2.02546 3.3007,2.024 Z"
       id="path63" />
    <path
       d="M 3.603,3.08509 3.598,3.103 A 0.01827,0.01827 0 0 1 3.58116,3.10754 L 3.57858,3.10169 3.591,3.094 C 3.59432,3.09066 3.59481,3.08428 3.603,3.08509 Z"
       id="path65" />
    <path
       d="M 1.56842,2.75071 A 0.02161,0.02161 0 0 1 1.54659,2.76508 L 1.53695,2.75962 A 0.00711,0.00711 0 0 1 1.54236,2.7481 Z"
       id="path67" />
    <path
       d="M 2.061,2.87986 2.0549,2.88994 C 2.04863,2.89794 2.04083,2.89684 2.03654,2.88735 A 0.06789,0.06789 0 0 1 2.032,2.86086 a 0.03228,0.03228 0 0 1 0.029,0.019 z"
       id="path69" />
    <path
       d="M 2.20853,2.90589 C 2.21,2.91925 2.21,2.91925 2.20366,2.92814 2.19655,2.91665 2.19677,2.91532 2.20853,2.90589 Z"
       id="path71" />
  </g>
  <g
     id="SvgjsG3333"
     featurekey="6sJQsk-0"
     transform="matrix(3.5628777,0,0,3.5628777,-5.1305441,107.97424)"
     fill="#111111">
    <path
       d="M 6.02,12.72 4.8,13.8 V 20 H 2.66 V 13.8 L 1.44,12.72 2.66,11.66 V 5.34 H 4.8 v 6.32 z m 16.452,4.84 -2.74,2.44 h -5.2 l -2.74,-2.44 v -3.78 l -1.22,-1.06 1.22,-1.08 V 7.78 l 2.74,-2.44 h 5.16 l 2.74,2.44 0.04,3.06 h -2.14 V 8.9 l -1.52,-1.42 h -3.36 l -1.52,1.32 v 7.74 l 1.52,1.32 h 3.36 l 1.52,-1.42 v -1.56 h -2.84 v -2.14 h 4.98 z m 17.212,-4.84 -1.22,1.06 v 3.76 L 35.724,20 h -5.2 l -2.74,-2.46 v -3.76 l -1.22,-1.06 1.22,-1.08 v -6.3 h 2.14 v 11.18 l 1.52,1.34 h 3.36 l 1.52,-1.34 V 5.34 h 2.14 v 6.3 z M 54.756,20 h -2.32 l -3.06,-6.2 h -2.62 V 20 h -2.14 v -6.2 l -1.22,-1.08 1.22,-1.06 V 5.34 h 7.08 l 2.38,2.76 v 2.94 l -2.38,2.76 z m -2.82,-9.88 V 9 l -1.26,-1.5 h -3.92 v 4.16 h 3.92 z m 19.672,2.6 -1.22,1.06 v 3.76 L 67.648,20 h -5.2 l -2.74,-2.46 v -3.76 l -1.22,-1.06 1.22,-1.08 v -6.3 h 2.14 v 11.18 l 1.52,1.34 h 3.36 l 1.52,-1.34 V 5.34 h 2.14 v 6.3 z"
       id="path74" />
  </g>
</svg>
